<svg width="32" height="32" viewBox="0 0 32 32" fill="none" xmlns="http://www.w3.org/2000/svg">
<g opacity="0.8">
<path d="M18.8438 5.33301C24.7311 5.33339 29.5009 10.1338 29.501 16.0479C29.5008 21.9619 24.7311 26.7623 18.8438 26.7627C14.6913 26.7627 11.0922 24.3732 9.33496 20.8867L9.10938 20.4404L10.0029 19.9902L10.2275 20.4365C11.8223 23.6007 15.0854 25.7627 18.8438 25.7627C24.1734 25.7623 28.5008 21.415 28.501 16.0479C28.5009 10.6807 24.1735 6.33339 18.8438 6.33301C15.2566 6.33301 12.1234 8.30093 10.459 11.2275L10.2109 11.6621L9.3418 11.168L9.58887 10.7334C11.423 7.50836 14.8809 5.33301 18.8438 5.33301ZM26.3086 12.2119L25.8936 12.4902L20.8945 15.8438C20.9842 16.0841 21.0361 16.3438 21.0361 16.6152C21.0359 17.8287 20.0564 18.8184 18.8428 18.8184C18.2616 18.8182 17.7355 18.5895 17.3438 18.2197L15.7373 19.3008L15.3223 19.5791L14.7637 18.75L15.1787 18.4707L16.791 17.3857C16.7015 17.1455 16.6504 16.8864 16.6504 16.6152C16.6506 15.4018 17.6293 14.4133 18.8428 14.4131C19.4242 14.4131 19.9507 14.6409 20.3428 15.0107L25.3359 11.6602L25.751 11.3818L26.3086 12.2119ZM13.1367 19.3848H4.80078V18.3848H13.1367V19.3848ZM18.8428 15.4131C18.187 15.4133 17.6506 15.9487 17.6504 16.6152C17.6507 17.2817 18.187 17.8181 18.8428 17.8184C19.4987 17.8184 20.0359 17.2818 20.0361 16.6152C20.0359 15.9486 19.4988 15.4131 18.8428 15.4131ZM10.8789 16.5479H1.97949V15.5479H10.8789V16.5479ZM13.1357 13.1426H4.23633V12.1426H13.1357V13.1426ZM18.8438 8.16992C21.1048 8.17011 23.1428 9.13519 24.5703 10.6738L24.9102 11.04L24.1777 11.7207L23.8379 11.3535C22.591 10.0095 20.8142 9.17011 18.8438 9.16992C17.1939 9.16992 15.6795 9.76188 14.4951 10.7412L14.1104 11.0596L13.4727 10.2891L13.8584 9.96973C15.2132 8.84958 16.9502 8.16992 18.8438 8.16992Z" fill="#C33C1D"/>
</g>
</svg>
