<svg width="32" height="32" viewBox="0 0 32 32" fill="none" xmlns="http://www.w3.org/2000/svg">
<g opacity="0.8">
<path d="M24.9961 3.23926C27.053 3.23955 28.7205 4.90696 28.7207 6.96387V24.9971C28.7203 27.0538 27.0529 28.7214 24.9961 28.7217H6.96289C4.90607 28.7214 3.2387 27.0539 3.23828 24.9971V22.001H4.23828V24.9971C4.2387 26.5016 5.45835 27.7214 6.96289 27.7217H24.9961C26.5006 27.7214 27.7203 26.5015 27.7207 24.9971V6.96387C27.7205 5.45925 26.5007 4.23955 24.9961 4.23926H6.96289C5.45824 4.23949 4.23852 5.45921 4.23828 6.96387V17.501H3.23828V6.96387C3.23852 4.90693 4.90595 3.23949 6.96289 3.23926H24.9961ZM18.1387 8.24707C20.6474 8.2472 22.6815 10.2813 22.6816 12.79V14.4717C22.6815 16.9804 20.6474 19.0155 18.1387 19.0156H14.8467V23.9082C14.8465 24.1841 14.6226 24.4081 14.3467 24.4082H11.001C10.7249 24.4082 10.5011 24.1842 10.501 23.9082V8.74805C10.501 8.4719 10.7248 8.24805 11.001 8.24805H18.1289C18.1321 8.24795 18.1355 8.24707 18.1387 8.24707ZM18.1387 9.24805H11.501V23.4082H13.8467V18.5156C13.8467 18.2395 14.0706 18.0157 14.3467 18.0156H18.1387C20.0951 18.0155 21.6815 16.4281 21.6816 14.4717V12.79C21.6815 10.8358 20.0989 9.25075 18.1455 9.24707C18.1434 9.2471 18.1408 9.24798 18.1387 9.24805ZM14.3555 11.251H17.3994C18.5303 11.251 19.4482 12.1689 19.4482 13.2998V13.9629C19.4482 15.0938 18.5303 16.0117 17.3994 16.0117H14.3457C14.0696 16.0117 13.8457 15.7878 13.8457 15.5117V11.75C13.8457 11.4739 14.0696 11.2501 14.3457 11.25C14.3489 11.25 14.3522 11.2509 14.3555 11.251ZM14.8457 15.0117H17.3994C17.978 15.0117 18.4482 14.5415 18.4482 13.9629V13.2998C18.4482 12.7212 17.9781 12.251 17.3994 12.251H14.8457V15.0117Z" fill="#C33C1D"/>
</g>
</svg>
