<svg width="32" height="32" viewBox="0 0 32 32" fill="none" xmlns="http://www.w3.org/2000/svg">
<g opacity="0.8">
<path d="M22.0156 7.43262C22.2918 7.43262 22.5156 7.65647 22.5156 7.93262V13.9834C22.5155 17.4305 19.8485 20.256 16.4668 20.5127V27.6025H18.9854V28.6025H12.9434V27.6025H15.4668V20.5127C12.0833 20.2578 9.41419 17.4317 9.41406 13.9834V7.93262C9.41406 7.65647 9.63792 7.43262 9.91406 7.43262H22.0156ZM10.4141 13.9834C10.4142 17.0471 12.9012 19.5341 15.9648 19.5342C19.0286 19.5342 21.5155 17.0471 21.5156 13.9834V8.43262H10.4141V13.9834ZM20.501 13.9834C20.501 16.4841 18.4675 18.5176 15.9668 18.5176H15.4668V17.5176H15.9668C17.9152 17.5176 19.501 15.9318 19.501 13.9834V13.4834H20.501V13.9834ZM22.5156 3.4248C24.6199 3.65605 26.2907 5.32768 26.5215 7.43262H26.5518V8.43262H26.5195C26.3561 9.92049 25.4758 11.1919 24.2305 11.8906L23.7939 12.1348L23.3047 11.2627L23.7412 11.0186C24.6831 10.4901 25.3572 9.54402 25.5146 8.43262H23.5352V7.43262H25.5137C25.294 5.8808 24.067 4.65373 22.5156 4.43359V6.41504H21.5156V4.43359C20.4206 4.58847 19.4865 5.24497 18.9541 6.16504L18.7041 6.59766L17.8379 6.09668L18.0889 5.66406C18.7933 4.44663 20.049 3.58753 21.5156 3.42676V3.39746H22.5156V3.4248ZM10.418 3.39746C10.5753 3.39746 10.7239 3.47274 10.8184 3.59863L12.3311 5.61523L12.6309 6.01465L11.8311 6.61523L11.5303 6.21484L10.168 4.39844H7.39648V3.39746H10.418Z" fill="#C33C1D"/>
</g>
</svg>
