<svg width="32" height="32" viewBox="0 0 32 32" fill="none" xmlns="http://www.w3.org/2000/svg">
<g opacity="0.8">
<path d="M13.7012 17.5L13.3477 17.8535L5.45996 25.7422C5.16789 26.0343 5.16643 26.5085 5.45898 26.8027L6.19141 27.5352C6.48538 27.8284 6.95994 27.8284 7.25391 27.5352L15.1426 19.6475L15.4961 19.2939L16.2031 20.001L7.96094 28.2432H7.95996C7.27567 28.9257 6.17062 28.9257 5.48633 28.2432H5.48535L4.75293 27.5098H4.75195C4.06966 26.8257 4.06955 25.7186 4.75293 25.0352L12.6396 17.1465L12.9932 16.793L13.7012 17.5ZM16.0488 10.0107C16.1423 10.1044 16.1953 10.2319 16.1953 10.3643C16.1952 10.4967 16.1415 10.6241 16.0479 10.7178L14.7676 11.9961L27.5166 23.9863C28.1585 24.5898 28.5738 25.3439 28.708 26.0859C28.8419 26.8266 28.6982 27.6013 28.1504 28.1494C27.6024 28.6974 26.8276 28.8408 26.0869 28.707C25.3448 28.5729 24.5908 28.1576 23.9873 27.5156L11.9961 14.7656L10.7168 16.0469C10.6231 16.1406 10.4958 16.1942 10.3633 16.1943C10.2309 16.1944 10.1035 16.1414 10.0098 16.0479L3.03711 9.0752L3.74414 8.36816L10.3623 14.9863L11.3105 14.0371L11.3018 14.0273L11.6328 13.7148L12.0068 13.3418L12.0176 13.3525L12.0303 13.3418L12.373 13.7061L12.4033 13.7383L12.7139 14.0488L12.7041 14.0576L24.7158 26.8311L24.8965 27.0098C25.3278 27.4041 25.8176 27.6428 26.2646 27.7236C26.7768 27.8161 27.1873 27.6984 27.4434 27.4424C27.6992 27.1863 27.8172 26.7758 27.7246 26.2637C27.6438 25.8167 27.4051 25.3268 27.0107 24.8955L26.832 24.7148L14.0596 12.7041L14.0498 12.7148L13.707 12.3721L13.3428 12.0293L13.3525 12.0176L13.3428 12.0078L13.6855 11.665L14.0283 11.3008L14.0391 11.3105L14.9873 10.3633L8.36914 3.74512L9.07617 3.03809L16.0488 10.0107ZM26.8018 3.24805C26.9512 3.26332 27.0863 3.34522 27.1689 3.4707L27.1699 3.47168L27.1709 3.47461C27.1718 3.47603 27.1736 3.47766 27.1748 3.47949C27.1773 3.48336 27.1801 3.48847 27.1836 3.49414C27.1909 3.50601 27.2007 3.52243 27.2119 3.54199C27.2343 3.58116 27.2642 3.63567 27.2979 3.70508C27.3655 3.84457 27.4502 4.04516 27.5283 4.30273C27.685 4.81905 27.8148 5.56389 27.7324 6.51074C27.5669 8.4118 26.554 11.0605 23.3389 14.2764C22.4724 15.1429 21.6723 15.8792 20.9531 16.499L20.5742 16.8262L19.9209 16.0684L20.2998 15.7422C21.0001 15.1387 21.7823 14.4189 22.6318 13.5693C25.7261 10.4744 26.5962 8.03369 26.7363 6.42383C26.8049 5.63494 26.6986 5.02894 26.5791 4.62305L17.499 13.7031L16.792 12.9961L17.1455 12.6426L26.3975 3.3916L26.4844 3.32227C26.578 3.26328 26.6896 3.2366 26.8018 3.24805ZM11.1562 12.291L10.4492 12.998L4.78223 7.33105L5.48926 6.62402L11.1562 12.291ZM12.9971 10.4502L12.29 11.1572L6.62305 5.49023L7.33008 4.7832L12.9971 10.4502Z" fill="#C33C1D"/>
</g>
</svg>
