<?xml version="1.0" encoding="UTF-8" standalone="no"?>
<!DOCTYPE svg PUBLIC "-//W3C//DTD SVG 1.1//EN" "http://www.w3.org/Graphics/SVG/1.1/DTD/svg11.dtd">
<svg xmlns="http://www.w3.org/2000/svg" xmlns:xlink="http://www.w3.org/1999/xlink" version="1.1" width="196.84972pt" height="196.84694pt" viewBox="0 0 196.84972 196.84694">
<g enable-background="new">
<clipPath id="cp0">
<path transform="matrix(2.7777777,0,0,-2.7777777,0,196.84694)" d="M 0 0 L 70.8659 0 L 70.8659 70.8649 L 0 70.8649 Z "/>
</clipPath>
<g clip-path="url(#cp0)">
<path transform="matrix(2.7777777,0,0,-2.7777777,0,196.84694)" d="M 60.6567 56.1518 L 60.4057 56.4728 L 60.0297 56.9028 C 59.7787 57.1898 59.5057 57.4568 59.2297 57.7188 C 58.6787 58.2458 58.0647 58.7028 57.4307 59.1238 C 56.1527 59.9528 54.7287 60.5568 53.2427 60.8898 C 50.2747 61.5568 47.0567 61.1738 44.3627 59.7458 C 41.6597 58.3368 39.4807 55.9568 38.3177 53.1388 C 37.1487 50.3198 37.0617 47.0888 37.9787 44.1898 C 38.9037 41.2808 40.9237 38.7538 43.5087 37.1488 C 44.8007 36.3438 46.2337 35.7668 47.7247 35.4518 C 49.2197 35.1558 50.7657 35.1228 52.2717 35.3418 C 55.2907 35.7628 58.1337 37.3138 60.1287 39.6218 C 62.1347 41.8918 63.3347 44.9538 63.3587 47.9248 C 63.3867 47.9548 63.6137 48.1988 63.9777 48.2008 C 64.3387 48.2018 64.5387 47.9358 64.5637 47.8998 C 64.5367 44.6568 63.2257 41.3038 61.0337 38.8268 C 58.8547 36.3088 55.7477 34.6118 52.4477 34.1498 C 50.8017 33.9108 49.1177 33.9468 47.4827 34.2718 C 45.8517 34.6148 44.2847 35.2458 42.8727 36.1258 C 40.0487 37.8788 37.8457 40.6378 36.8327 43.8188 C 35.8287 46.9898 35.9257 50.5108 37.2037 53.5958 C 38.4737 56.6778 40.8517 59.2748 43.8067 60.8138 C 46.7547 62.3738 50.2657 62.7948 53.5087 62.0648 C 55.1327 61.6998 56.6907 61.0408 58.0867 60.1338 C 58.7797 59.6748 59.4487 59.1748 60.0517 58.5998 C 60.3527 58.3138 60.6507 58.0218 60.9247 57.7088 L 61.3347 57.2388 L 61.6097 56.8888 C 61.6107 56.8398 61.6147 56.5128 61.3387 56.3108 C 61.0317 56.0868 60.6927 56.1448 60.6567 56.1518 " fill="#c15a2d"/>
<path transform="matrix(2.7777777,0,0,-2.7777777,0,196.84694)" d="M 57.8353 32.7355 L 57.8713 32.6135 C 57.9043 32.4935 57.9493 32.3685 57.9973 32.2435 C 58.0903 31.9925 58.2053 31.7385 58.3233 31.4865 C 58.5653 30.9795 58.8393 30.4755 59.1203 29.9675 L 59.5463 29.1935 L 59.7593 28.7695 C 59.7923 28.6905 59.8393 28.6065 59.8713 28.4645 C 59.9033 28.3365 59.9233 28.1395 59.9133 28.0985 L 59.9133 26.3475 L 59.9133 19.3445 C 59.8863 18.7485 59.9783 18.2335 59.8293 17.4625 C 59.6723 16.7555 59.2483 16.1185 58.6783 15.6805 C 58.1183 15.2335 57.3553 15.0115 56.6783 15.0295 L 54.9273 15.0295 L 47.9243 15.0295 L 19.9113 15.0295 L 12.9073 15.0295 L 12.0323 15.0295 C 11.7133 15.0275 11.3223 15.0685 10.9863 15.1795 C 10.2953 15.3975 9.6943 15.8655 9.3023 16.4705 C 9.1063 16.7725 8.9583 17.1095 8.8803 17.4625 C 8.7953 17.8145 8.7933 18.1985 8.7983 18.4625 L 8.8043 20.2215 L 8.8293 27.2575 C 8.8443 27.8495 8.7943 28.4065 8.9093 29.0665 C 9.0123 29.7015 9.2093 30.3155 9.4753 30.8885 C 10.0083 32.0385 10.7963 33.0215 11.6753 33.8695 C 12.1553 34.3085 12.4803 34.6065 12.8343 35.0665 C 13.1763 35.4985 13.4953 35.9665 13.7793 36.4415 C 13.9123 36.6635 14.0723 36.9585 14.1233 37.0975 L 14.3963 37.9105 L 14.9563 39.5765 L 16.0753 42.9075 C 16.2713 43.4585 16.4153 44.0105 16.7093 44.6285 C 16.9953 45.2185 17.4023 45.7615 17.8963 46.2025 C 18.8813 47.0655 20.2113 47.5815 21.4943 47.5325 L 25.0093 47.5495 L 31.9433 47.5025 C 31.9753 47.4755 32.2303 47.2595 32.2253 46.8955 C 32.2213 46.5335 31.9643 46.3245 31.9303 46.2985 L 25.0073 46.3445 L 21.5193 46.3275 C 20.4583 46.3765 19.4673 45.9595 18.6953 45.3025 C 18.3203 44.9645 18.0133 44.5575 17.7903 44.0985 C 17.5783 43.6635 17.4123 43.0825 17.2213 42.5335 L 16.1093 39.2275 L 15.5533 37.5735 L 15.2693 36.7265 C 15.1153 36.3185 14.9743 36.1095 14.8153 35.8265 C 14.5003 35.3005 14.1603 34.8015 13.7783 34.3185 C 13.5863 34.0765 13.3843 33.8405 13.1603 33.6115 C 12.9243 33.3685 12.7013 33.1915 12.5093 33.0005 C 11.7103 32.2305 11.0183 31.3555 10.5683 30.3835 C 10.3433 29.8975 10.1813 29.3895 10.0973 28.8715 C 10.0043 28.3785 10.0433 27.7615 10.0323 27.1885 L 10.0093 20.2175 L 10.0023 18.4745 C 9.9993 18.1565 10.0033 17.9525 10.0533 17.7345 C 10.1003 17.5175 10.1923 17.3105 10.3133 17.1245 C 10.5553 16.7515 10.9283 16.4605 11.3523 16.3265 C 11.5733 16.2585 11.7673 16.2355 12.0323 16.2335 L 12.9073 16.2335 L 19.9113 16.2335 L 47.9243 16.2335 L 54.9273 16.2335 L 56.6783 16.2335 C 57.1663 16.2255 57.5843 16.3585 57.9453 16.6365 C 58.2973 16.9085 58.5623 17.3005 58.6563 17.7355 C 58.7473 18.1115 58.6933 18.7785 58.7083 19.3445 L 58.7083 26.3475 L 58.7083 28.0985 L 58.7083 28.1655 L 58.6643 28.2685 L 58.4833 28.6255 L 58.0663 29.3855 C 57.7823 29.8995 57.4973 30.4205 57.2363 30.9675 C 57.1073 31.2435 56.9813 31.5215 56.8703 31.8175 C 56.8143 31.9655 56.7603 32.1155 56.7153 32.2765 L 56.6683 32.4365 C 56.6863 32.4925 56.8193 32.8225 57.1603 32.8655 C 57.5383 32.9115 57.8093 32.7475 57.8353 32.7355 " fill="#c15a2d"/>
<path transform="matrix(2.7777777,0,0,-2.7777777,0,196.84694)" d="M 37.5067 33.9804 L 37.4217 33.9804 L 27.5507 33.9804 L 22.6147 33.9804 L 21.3807 33.9804 L 20.6967 33.9804 C 20.4587 34.0244 20.3837 34.0664 20.2777 34.0974 L 19.9647 34.2084 C 19.1347 34.5204 18.3607 34.9694 17.6687 35.5014 L 17.6507 35.5154 C 17.6367 35.5564 17.5597 35.8934 17.7927 36.1724 C 18.0247 36.4504 18.3447 36.4644 18.3857 36.4694 L 18.4017 36.4574 C 19.0137 35.9864 19.6797 35.6034 20.3907 35.3354 L 20.6587 35.2394 L 20.8297 35.1844 L 21.3807 35.1844 L 22.6147 35.1844 L 27.5507 35.1844 L 37.4227 35.1844 L 37.5067 35.1844 C 37.5437 35.1554 37.7967 34.9574 37.7967 34.6144 C 37.7967 34.2354 37.5367 34.0044 37.5067 33.9804 " fill="#c15a2d"/>
<path transform="matrix(2.7777777,0,0,-2.7777777,0,196.84694)" d="M 43.7314 20.4122 L 43.6474 20.4122 L 25.3204 20.4122 L 25.2994 20.4122 C 25.2664 20.4382 25.0094 20.6522 25.0104 21.0162 C 25.0114 21.3782 25.2654 21.5902 25.2994 21.6162 L 25.3204 21.6162 L 43.6474 21.6162 L 43.7314 21.6162 C 43.7684 21.5872 44.0214 21.3892 44.0214 21.0462 C 44.0214 20.6672 43.7614 20.4362 43.7314 20.4122 " fill="#c15a2d"/>
<path transform="matrix(2.7777777,0,0,-2.7777777,0,196.84694)" d="M 15.0742 28.8029 L 15.1372 28.7539 C 16.1632 27.9759 17.2712 27.3469 18.5292 27.5149 L 22.6382 27.5149 L 22.6602 27.5149 C 22.6932 27.4879 22.9492 27.2749 22.9492 26.9109 C 22.9482 26.5489 22.6932 26.3369 22.6602 26.3099 L 22.6382 26.3099 L 18.5292 26.3099 L 18.0152 26.3099 L 17.7582 26.3099 C 17.7262 26.2999 17.4472 26.3189 17.3972 26.3409 C 17.0122 26.4079 16.6432 26.5249 16.2922 26.6679 C 15.5892 26.9559 14.9642 27.3599 14.3932 27.8059 L 14.3232 27.8609 C 14.3092 27.9089 14.2312 28.2309 14.4532 28.4909 C 14.7002 28.7799 15.0372 28.7999 15.0742 28.8029 " fill="#c15a2d"/>
<path transform="matrix(2.7777777,0,0,-2.7777777,0,196.84694)" d="M 54.7461 27.8612 L 54.6761 27.8062 C 54.1051 27.3602 53.4801 26.9562 52.7771 26.6672 C 52.4261 26.5252 52.0571 26.4082 51.6721 26.3402 C 51.6221 26.3192 51.3431 26.3002 51.3111 26.3102 L 51.0541 26.3102 L 50.5401 26.3102 L 46.4311 26.3102 L 46.4091 26.3102 C 46.3761 26.3362 46.1201 26.5502 46.1201 26.9142 C 46.1211 27.2762 46.3761 27.4882 46.4091 27.5152 L 46.4311 27.5152 L 50.5401 27.5152 C 51.7981 27.3472 52.9061 27.9752 53.9321 28.7542 L 53.9951 28.8032 C 54.0401 28.8002 54.3511 28.8012 54.5741 28.5402 C 54.8211 28.2522 54.7581 27.9002 54.7461 27.8612 " fill="#c15a2d"/>
<path transform="matrix(2.7777777,0,0,-2.7777777,0,196.84694)" d="M 16.5888 15.0295 L 16.5048 15.0295 L 12.2708 15.0295 L 12.2708 12.9515 L 12.2708 11.5775 L 12.2738 10.9165 C 12.2808 10.7585 12.3148 10.6035 12.3748 10.4585 C 12.4988 10.1685 12.7308 9.9255 13.0128 9.7865 C 13.3008 9.6325 13.5738 9.6445 14.0898 9.6485 L 16.8388 9.6485 L 19.5868 9.6485 C 19.8008 9.6505 20.0808 9.6445 20.2388 9.6535 C 20.3968 9.6625 20.5508 9.6995 20.6958 9.7625 C 20.9848 9.8855 21.2238 10.1255 21.3578 10.4085 C 21.4258 10.5505 21.4668 10.7035 21.4818 10.8605 C 21.4938 10.9865 21.4848 11.2905 21.4878 11.4955 L 21.4878 12.8705 L 21.4878 15.0295 L 17.1678 15.0295 C 17.1348 15.0555 16.8788 15.2695 16.8788 15.6335 C 16.8798 15.9955 17.1348 16.2075 17.1678 16.2335 L 19.6318 16.2335 L 20.8678 16.2335 L 21.4848 16.2335 C 21.8798 16.2225 22.3318 16.2585 22.6918 16.2085 L 22.6918 12.8705 L 22.6918 11.4955 C 22.6878 11.2435 22.7028 11.0895 22.6818 10.7575 C 22.6548 10.4585 22.5748 10.1625 22.4458 9.8915 C 22.1888 9.3485 21.7358 8.9005 21.1818 8.6605 C 20.9068 8.5395 20.6088 8.4685 20.3098 8.4515 C 20.0108 8.4375 19.8318 8.4475 19.5868 8.4445 L 16.8388 8.4445 L 14.0898 8.4445 C 13.8438 8.4485 13.6758 8.4345 13.3428 8.4575 C 13.0438 8.4885 12.7498 8.5735 12.4798 8.7065 C 11.9398 8.9715 11.5018 9.4325 11.2668 9.9875 C 11.1498 10.2655 11.0838 10.5645 11.0708 10.8635 L 11.0658 11.5775 L 11.0658 12.9515 L 11.0658 14.3255 L 11.0658 15.0135 L 11.0658 15.6845 L 11.0658 16.0275 L 11.0658 16.1995 C 11.0538 16.2685 11.1608 16.2185 11.2028 16.2335 L 16.5048 16.2335 L 16.5888 16.2335 C 16.6258 16.2045 16.8788 16.0065 16.8788 15.6635 C 16.8788 15.2845 16.6188 15.0535 16.5888 15.0295 " fill="#c15a2d"/>
<path transform="matrix(2.7777777,0,0,-2.7777777,0,196.84694)" d="M 51.3141 15.0295 L 51.2291 15.0295 L 47.4871 15.0295 L 47.4871 12.9525 L 47.4871 11.5785 L 47.4911 10.9175 C 47.4971 10.7595 47.5311 10.6045 47.5911 10.4595 C 47.7151 10.1695 47.9461 9.9255 48.2281 9.7875 C 48.5171 9.6325 48.7891 9.6445 49.3051 9.6485 L 52.0541 9.6485 L 54.8031 9.6485 C 55.0161 9.6505 55.2961 9.6445 55.4551 9.6535 C 55.6131 9.6625 55.7671 9.6985 55.9111 9.7615 C 56.2011 9.8855 56.4401 10.1245 56.5741 10.4075 C 56.6421 10.5495 56.6831 10.7025 56.6981 10.8595 C 56.7111 10.9845 56.7011 11.2885 56.7041 11.4945 L 56.7041 12.8695 L 56.7041 15.0295 L 51.8931 15.0295 C 51.8601 15.0555 51.6041 15.2695 51.6041 15.6335 C 51.6051 15.9955 51.8601 16.2075 51.8931 16.2335 L 54.6041 16.2335 L 55.9621 16.2335 L 56.6411 16.2335 C 56.9561 16.2215 57.5391 16.2615 57.9091 16.2065 L 57.9091 12.8695 L 57.9091 11.4945 C 57.9041 11.2425 57.9201 11.0885 57.8981 10.7555 C 57.8711 10.4565 57.7911 10.1615 57.6621 9.8895 C 57.4041 9.3465 56.9511 8.8995 56.3971 8.6595 C 56.1211 8.5385 55.8241 8.4685 55.5241 8.4505 C 55.2261 8.4375 55.0471 8.4475 54.8031 8.4445 L 52.0541 8.4445 L 49.3051 8.4445 C 49.0591 8.4485 48.8901 8.4345 48.5571 8.4575 C 48.2591 8.4885 47.9641 8.5735 47.6951 8.7075 C 47.1551 8.9725 46.7181 9.4345 46.4821 9.9895 C 46.3651 10.2665 46.3001 10.5665 46.2871 10.8655 L 46.2821 11.5785 L 46.2821 12.9525 L 46.2821 14.3275 L 46.2821 15.0145 L 46.2821 15.6865 L 46.2821 16.0305 L 46.2821 16.2015 C 46.2761 16.2655 46.3791 16.2195 46.4221 16.2335 L 51.2291 16.2335 L 51.3141 16.2335 C 51.3511 16.2045 51.6041 16.0065 51.6041 15.6635 C 51.6041 15.2845 51.3441 15.0535 51.3141 15.0295 " fill="#c15a2d"/>
<path transform="matrix(2.7777777,0,0,-2.7777777,0,196.84694)" d="M 13.8139 35.2176 L 13.7299 35.2176 L 10.1099 35.2176 L 8.2999 35.2176 L 7.2959 35.2176 L 6.4029 35.2306 C 6.3859 35.2316 6.3649 35.2296 6.3499 35.2336 L 6.3459 35.2886 L 6.3389 35.4006 L 6.3239 35.6236 L 6.3009 36.0706 C 6.2979 36.2026 6.2829 36.4056 6.2899 36.4796 L 6.2969 36.7286 C 6.3099 36.8936 6.3199 37.0586 6.3439 37.2236 C 6.3859 37.5546 6.4529 37.8836 6.5539 38.2066 C 6.7479 38.8516 7.0729 39.4836 7.5519 40.0076 C 7.6699 40.1386 7.7989 40.2626 7.9359 40.3766 C 8.0449 40.4616 8.1779 40.5746 8.2919 40.6566 L 8.7259 40.6566 L 9.6309 40.6566 L 11.4409 40.6566 L 11.4629 40.6566 C 11.4959 40.6306 11.7519 40.4166 11.7509 40.0526 C 11.7509 39.6916 11.4959 39.4786 11.4629 39.4526 L 11.4409 39.4526 L 9.6309 39.4526 L 8.7259 39.4526 C 8.6869 39.4516 8.7159 39.4526 8.7089 39.4536 C 8.6149 39.3746 8.5249 39.2886 8.4409 39.1956 C 8.1049 38.8286 7.8579 38.3626 7.7059 37.8546 C 7.6259 37.6026 7.5719 37.3376 7.5389 37.0696 C 7.5179 36.9366 7.5119 36.8006 7.4999 36.6646 L 7.4929 36.4226 L 13.7299 36.4226 L 13.8139 36.4226 C 13.8509 36.3926 14.1039 36.1946 14.1039 35.8526 C 14.1039 35.4726 13.8439 35.2416 13.8139 35.2176 " fill="#c15a2d"/>
<path transform="matrix(2.7777777,0,0,-2.7777777,0,196.84694)" d="M 44.1559 46.2844 L 43.9909 46.9454 C 43.9419 47.1394 43.9039 47.2724 43.8779 47.3464 L 42.5209 51.6494 L 41.6799 51.6494 L 44.0179 44.7514 L 44.4019 44.7514 L 44.8749 44.7514 L 45.2479 44.7514 L 47.5949 51.6494 L 46.7549 51.6494 L 45.2789 46.9394 C 45.2229 46.7334 45.1689 46.5154 45.1159 46.2894 M 43.4799 44.0014 L 40.6339 52.3994 L 43.0709 52.3994 L 44.5889 47.5844 C 44.6009 47.5524 44.6159 47.5014 44.6359 47.4344 L 44.6719 47.5684 L 46.2059 52.3994 L 48.6429 52.3994 L 45.7849 44.0014 Z " fill="#c15a2d"/>
<path transform="matrix(2.7777777,0,0,-2.7777777,0,196.84694)" d="M 49.3727 44.7512 L 52.1037 44.7512 L 52.1037 45.0572 L 51.1717 45.4852 L 51.1717 50.9152 L 52.1037 51.3432 L 52.1037 51.6492 L 49.3727 51.6492 L 49.3727 51.3432 L 50.3047 50.9152 L 50.3047 45.4852 L 49.3727 45.0572 Z M 52.8537 44.0012 L 48.6227 44.0012 L 48.6227 45.5372 L 49.5547 45.9662 L 49.5547 50.4352 L 48.6227 50.8622 L 48.6227 52.3992 L 52.8537 52.3992 L 52.8537 50.8622 L 51.9217 50.4352 L 51.9217 45.9662 L 52.8537 45.5372 Z " fill="#c15a2d"/>
<path transform="matrix(2.7777777,0,0,-2.7777777,0,196.84694)" d="M 56.2819 48.8108 L 56.4529 48.8108 C 56.7089 48.8108 56.9289 48.8418 57.1089 48.9028 C 57.2479 48.9518 57.3509 49.0268 57.4229 49.1328 C 57.4969 49.2438 57.5349 49.4058 57.5349 49.6148 C 57.5349 49.9228 57.4279 50.0538 57.3459 50.1248 C 57.2089 50.2478 56.9559 50.3108 56.6139 50.3108 L 56.2819 50.3108 Z M 56.4529 48.0608 L 55.5319 48.0608 L 55.5319 51.0608 L 56.6139 51.0608 C 57.1499 51.0608 57.5629 50.9348 57.8429 50.6868 C 58.1359 50.4288 58.2849 50.0688 58.2849 49.6148 C 58.2849 49.2528 58.2039 48.9508 58.0449 48.7138 C 57.8799 48.4698 57.6469 48.2948 57.3519 48.1938 C 57.0929 48.1058 56.7909 48.0608 56.4529 48.0608 M 54.6429 44.7508 L 55.5319 44.7508 L 55.5319 47.4608 L 56.6029 47.4608 C 57.1069 47.4608 57.5319 47.5238 57.8659 47.6468 C 58.1879 47.7658 58.4489 47.9288 58.6389 48.1308 C 58.8339 48.3378 58.9699 48.5638 59.0529 48.8198 C 59.1399 49.0888 59.1849 49.3738 59.1849 49.6678 C 59.1849 50.3098 58.9949 50.7868 58.6059 51.1258 C 58.2069 51.4728 57.5549 51.6498 56.6679 51.6498 L 54.6429 51.6498 Z M 56.2819 44.0008 L 53.8929 44.0008 L 53.8929 52.3998 L 56.6679 52.3998 C 57.7409 52.3998 58.5589 52.1618 59.0989 51.6918 C 59.6539 51.2068 59.9349 50.5268 59.9349 49.6678 C 59.9349 49.2958 59.8779 48.9328 59.7669 48.5878 C 59.6499 48.2298 59.4539 47.9038 59.1849 47.6168 C 58.9129 47.3298 58.5569 47.1028 58.1259 46.9438 C 57.7079 46.7898 57.1959 46.7108 56.6029 46.7108 L 56.2819 46.7108 Z " fill="#c15a2d"/>
</g>
</g>
</svg>
