<svg width="32" height="32" viewBox="0 0 32 32" fill="none" xmlns="http://www.w3.org/2000/svg">
<g opacity="0.8">
<path d="M29.4219 7.78613H21.5537L20.7266 7.7998C18.6907 7.86809 15.9646 8.23603 13.7451 9.94434V9.94531C13.5176 10.1205 13.2115 10.4191 12.8477 10.8008C12.4868 11.1794 12.0957 11.6103 11.6914 12.0459C11.2922 12.476 10.8837 12.9068 10.5049 13.2637C10.1372 13.61 9.75567 13.9271 9.41406 14.0908C8.98328 14.2972 8.53397 14.4755 8.09277 14.6475C7.64666 14.8213 7.20976 14.9887 6.77734 15.1797C6.25658 15.4097 5.75611 15.6701 5.28906 16H5.47949C6.02193 16 6.49997 16.4265 6.5 16.998V17.5C6.5 18.3488 5.78743 19 4.95508 19H3.64746C3.56421 19.5763 3.52225 20.1608 3.50195 20.6562C3.48493 21.0789 3.8117 21.4072 4.19043 21.4072H6.87988C7.21693 19.6115 8.75487 18.2394 10.624 18.2393C12.4933 18.2393 14.0321 19.6114 14.3691 21.4072H19.0703V14.8613H12.3994C11.5962 14.8613 11.1505 13.963 11.5674 13.3125C12.2506 12.2474 13.2384 11.0845 14.376 10.2764C16.0967 9.05388 17.9216 8.51883 20.252 8.54199V8.54297C20.7368 8.54773 21.0859 8.95377 21.0859 9.39844V11.5645H22.0166V9.26074H21.1445V8.26074H27.4248V9.26074H26.5537V11.5645H28.1221C28.8958 11.5645 29.4996 12.2058 29.5 12.9668V22.4316C29.5 22.6608 29.5005 23.0004 29.4043 23.2822C29.352 23.4351 29.2602 23.6075 29.0928 23.7402C29.0298 23.7901 28.9612 23.8265 28.8906 23.8564C28.9112 23.9682 28.9238 24.0829 28.9238 24.2002C28.9238 24.5079 28.8485 24.7998 28.7168 25.0576H29.5V26.0576H2.55273V25.0576H8.07812C7.35784 24.394 6.88637 23.4547 6.81934 22.4072H4.19043C3.21877 22.4072 2.46361 21.5809 2.50293 20.6152C2.53113 19.9269 2.60071 19.0455 2.76758 18.2227C2.92948 17.4244 3.20051 16.5802 3.69727 16.0566C4.51314 15.197 5.45232 14.6714 6.37305 14.2646C6.83076 14.0625 7.29307 13.8859 7.72949 13.7158C8.17085 13.5438 8.58839 13.3778 8.98145 13.1895H8.98242C9.17177 13.0986 9.45578 12.8776 9.81934 12.5352C10.172 12.2029 10.5614 11.7936 10.959 11.3652C11.3518 10.9421 11.7575 10.4948 12.124 10.1104C12.4874 9.72919 12.84 9.37929 13.1348 9.15234C15.9539 6.98221 19.4525 6.79069 21.5518 6.78613H29.4219V7.78613ZM23.251 23.834C23.2743 23.9526 23.2861 24.0752 23.2861 24.2002C23.2861 24.508 23.2109 24.7998 23.0791 25.0576H25.4922C25.3604 24.7998 25.2852 24.508 25.2852 24.2002C25.2852 24.0752 25.297 23.9526 25.3203 23.834H23.251ZM10.624 19.2393C9.08372 19.2395 7.81058 20.5284 7.81055 22.1484C7.81056 23.7685 9.08371 25.0574 10.624 25.0576C12.1645 25.0576 13.4375 23.7686 13.4375 22.1484C13.4375 20.5283 12.1645 19.2393 10.624 19.2393ZM14.4287 22.4072C14.3617 23.4546 13.8911 24.394 13.1709 25.0576H19.8545C19.7227 24.7998 19.6475 24.508 19.6475 24.2002C19.6475 24.0925 19.6574 23.9869 19.6748 23.8838C19.5768 23.8501 19.4828 23.7984 19.3984 23.7246C19.2315 23.5781 19.1555 23.3915 19.1182 23.2412C19.0812 23.0921 19.072 22.9368 19.0693 22.8086C19.0669 22.6871 19.0703 22.5344 19.0703 22.4316V22.4072H14.4287ZM21.4668 23.3428C21.0278 23.3428 20.6475 23.7132 20.6475 24.2002C20.6475 24.6872 21.0278 25.0576 21.4668 25.0576C21.9056 25.0574 22.2861 24.687 22.2861 24.2002C22.2861 23.7133 21.9057 23.343 21.4668 23.3428ZM27.1045 23.3428C26.6655 23.3428 26.2852 23.7132 26.2852 24.2002C26.2852 24.6872 26.6655 25.0576 27.1045 25.0576C27.5433 25.0574 27.9238 24.687 27.9238 24.2002C27.9238 23.7134 27.5433 23.343 27.1045 23.3428ZM10.625 19.6875C11.9669 19.6877 13.0302 20.803 13.0303 22.1484C13.0302 23.4939 11.9669 24.6091 10.625 24.6094C9.28295 24.6094 8.21879 23.4941 8.21875 22.1484C8.2188 20.8028 9.28295 19.6875 10.625 19.6875ZM10.625 20.6875C9.86194 20.6875 9.2188 21.328 9.21875 22.1484C9.21879 22.9689 9.86194 23.6094 10.625 23.6094C11.3879 23.6091 12.0302 22.9687 12.0303 22.1484C12.0302 21.3282 11.3879 20.6877 10.625 20.6875ZM20.4473 12.5645C20.2526 12.5649 20.0707 12.7315 20.0703 12.9668V21.4072H20.0713V22.4072H20.0703V22.4316C20.0703 22.5776 20.067 22.6751 20.0693 22.7881C20.0706 22.8499 20.0749 22.8985 20.0791 22.9355H20.1367C20.4667 22.5731 20.9368 22.3428 21.4668 22.3428C21.9451 22.3429 22.3743 22.531 22.6963 22.834H25.874C26.1961 22.5308 26.6259 22.3428 27.1045 22.3428C27.6344 22.3429 28.1046 22.5731 28.4346 22.9355H28.4639C28.4742 22.8971 28.4851 22.8407 28.4912 22.7607C28.4986 22.6646 28.5 22.5563 28.5 22.4316V12.9668C28.4996 12.7312 28.317 12.5645 28.1221 12.5645H20.4473ZM4.23438 17C4.08278 17.2513 3.95264 17.5921 3.8457 18H4.95508C5.27688 18 5.5 17.7557 5.5 17.5V17.0059C5.49659 17.0034 5.48995 17 5.47949 17H4.23438ZM27.0283 13.6006C27.4502 13.6442 27.7693 14.005 27.7695 14.4287V15.9453C27.7694 16.3974 27.4061 16.7771 26.9424 16.7773H23.959C23.4951 16.7773 23.132 16.3975 23.1318 15.9453V14.4287C23.132 13.9766 23.4952 13.5967 23.959 13.5967H26.9424L27.0283 13.6006ZM24.1318 15.7773H26.7695V14.5967H24.1318V15.7773ZM20.0859 9.54199C18.0193 9.54536 16.4475 10.0315 14.9551 11.0918C13.9492 11.8063 13.0441 12.8628 12.4092 13.8525L12.4072 13.8555C12.4074 13.8564 12.4081 13.8588 12.4092 13.8613H19.0703V12.9668C19.0707 12.3297 19.4941 11.7774 20.0859 11.6143V9.54199ZM23.0166 11.5645H25.5537V9.26074H23.0166V11.5645Z" fill="#C33C1D"/>
</g>
</svg>
