<svg width="32" height="32" viewBox="0 0 32 32" fill="none" xmlns="http://www.w3.org/2000/svg">
<g opacity="0.8">
<path d="M13.25 9.7832H7.3457C6.84845 9.7832 6.44343 10.1875 6.44336 10.6875V11.4502C6.88159 11.8059 7.16211 12.3492 7.16211 12.958V15.4795C7.76952 14.8787 8.60421 14.5078 9.52637 14.5078H15.0889C16.0102 14.5079 16.8457 14.8781 17.4531 15.4785V12.958C17.4531 12.3486 17.7339 11.8049 18.1729 11.4492V10.6875C18.1728 10.1873 17.7679 9.78359 17.2715 9.7832H16V8.7832H17.2715C18.3212 8.78359 19.1728 9.63601 19.1729 10.6875V11.0303C19.2446 11.0222 19.3177 11.0176 19.3916 11.0176C20.4632 11.0178 21.3311 11.8866 21.3311 12.958V19.042C21.3307 20.1132 20.463 20.9812 19.3916 20.9814H19.1719V22.2178H22.8633V17.3584C22.8635 17.0825 23.0873 16.8584 23.3633 16.8584H25.3135V15.1396L25.2021 14.7207L25.3135 14.6904V14.2363C24.5949 14.2279 24.0166 14.0105 23.5693 13.6367C23.0261 13.1827 22.7354 12.5475 22.5781 11.9541C22.42 11.3574 22.3846 10.7566 22.3867 10.3145C22.3878 10.0916 22.3987 9.90351 22.4092 9.77051C22.4144 9.70417 22.4198 9.65065 22.4238 9.61328C22.4258 9.59485 22.4274 9.57985 22.4287 9.56934C22.4293 9.56433 22.4293 9.55971 22.4297 9.55664C22.4299 9.55531 22.4305 9.55364 22.4307 9.55273V9.5498C22.4653 9.29281 22.6911 9.10493 22.9502 9.11719C24.5832 9.19453 25.5522 10.033 26.0957 10.8506C26.2257 11.0462 26.3306 11.2406 26.416 11.4219C26.4265 11.409 26.4366 11.3957 26.4473 11.3828C27.1351 10.5528 28.089 9.84282 29.168 9.40137L29.2578 9.37402C29.4691 9.33112 29.6893 9.42944 29.7959 9.625L29.7969 9.62598V9.62695L29.7979 9.62793C29.7984 9.62916 29.799 9.63127 29.7998 9.63281C29.8016 9.63611 29.8041 9.64051 29.8066 9.64551C29.812 9.65587 29.8197 9.67024 29.8281 9.6875C29.8451 9.72229 29.8678 9.77136 29.8936 9.83203C29.9453 9.95371 30.011 10.1262 30.0693 10.3369C30.1853 10.756 30.2783 11.3459 30.168 11.998C30.0559 12.6593 29.7369 13.365 29.0605 14.001C28.4493 14.5756 27.5625 15.0745 26.3135 15.4502V16.8584H28.084C28.3599 16.8585 28.5838 17.0825 28.584 17.3584V22.2178H30.2178V23.2178H1.78223V22.2178H5.44336V20.9814H5.22363C4.15209 20.9814 3.28547 20.1133 3.28516 19.042V12.958C3.28516 11.8864 4.1519 11.0176 5.22363 11.0176C5.29783 11.0176 5.37135 11.0222 5.44336 11.0303V10.6875C5.44343 9.63715 6.29428 8.7832 7.3457 8.7832H13.25V9.7832ZM23.8633 22.2178H27.584V17.8584H26.3135V17.8604H25.3135V17.8584H23.8633V22.2178ZM6.44336 22.2178H18.1719V20.9814H6.44336V22.2178ZM5.22363 12.0176C4.7052 12.0176 4.28516 12.4377 4.28516 12.958V19.042C4.28546 19.562 4.70539 19.9814 5.22363 19.9814H6.16211V12.958C6.16211 12.6535 6.01729 12.3836 5.79395 12.2119H5.44336V12.0439C5.37295 12.027 5.29922 12.0176 5.22363 12.0176ZM9.52637 15.5078C8.2205 15.5078 7.16211 16.5671 7.16211 17.875V19.9814H17.4531V17.875L17.4414 17.6328C17.3205 16.4381 16.3124 15.508 15.0889 15.5078H9.52637ZM19.3916 12.0176C18.8733 12.0178 18.4531 12.4378 18.4531 12.958V19.9814H19.3916C19.9097 19.9812 20.3307 19.5619 20.3311 19.042V12.958C20.3311 12.4378 19.9099 12.0178 19.3916 12.0176ZM29.085 10.541C28.3479 10.9184 27.7 11.4374 27.2168 12.0205C27.0516 12.2198 26.9095 12.4247 26.7881 12.6299L26.8398 12.9492L26.5996 12.9873C26.464 13.281 26.3752 13.5733 26.3369 13.8564L26.373 14.1406L26.3145 14.1475C26.3144 14.1554 26.3135 14.1639 26.3135 14.1719V14.4023C27.2926 14.0746 27.9457 13.6769 28.376 13.2725C28.886 12.7928 29.1053 12.2873 29.1826 11.8311C29.2613 11.366 29.1958 10.93 29.1055 10.6035C29.0995 10.582 29.0911 10.5614 29.085 10.541ZM23.3867 10.3193C23.3848 10.7126 23.4176 11.2176 23.5449 11.6982C23.6732 12.1822 23.8857 12.5973 24.2109 12.8691C24.4769 13.0914 24.8613 13.253 25.4453 13.2344C25.5166 12.9753 25.6144 12.7195 25.7363 12.4707C25.7214 12.4129 25.7033 12.3397 25.6758 12.2568C25.5984 12.0242 25.469 11.7147 25.2627 11.4043C24.9141 10.8799 24.3443 10.346 23.3896 10.1709C23.3884 10.2178 23.387 10.2676 23.3867 10.3193Z" fill="#C33C1D"/>
</g>
</svg>
