<svg width="32" height="32" viewBox="0 0 32 32" fill="none" xmlns="http://www.w3.org/2000/svg">
<g opacity="0.8">
<path d="M20.6348 27.6328H9.19238V26.6328H20.6348V27.6328ZM12.3457 5.34082C13.6968 4.57137 15.3519 4.52484 16.6357 5.3125C17.1713 5.64053 17.6071 6.09226 17.9277 6.62012C18.1404 6.42673 18.3629 6.26542 18.6211 6.14746C19.0015 5.97378 19.4143 5.91019 19.9053 5.91016C21.8958 5.91016 23.5106 7.52417 23.5107 9.51465C23.5107 9.89038 23.4816 10.1977 23.376 10.4941C23.2712 10.788 23.1034 11.0336 22.8984 11.3027L22.8896 11.3125C22.9389 11.4208 22.9849 11.5314 23.0225 11.6465L25.4404 19.0439H28.8535V20.0439H27.0771C27.0476 20.1448 27.0119 20.2695 26.9668 20.4209C26.8052 20.9634 26.534 21.8531 26.0996 23.2471C26.098 23.2531 26.0985 23.2605 26.0967 23.2666C25.9143 23.8504 25.464 24.417 24.7959 24.417H7.70898C7.04183 24.417 6.59011 23.8542 6.40723 23.2666L5.86719 21.5215C5.72395 21.0539 5.61548 20.6934 5.53418 20.4209C5.48899 20.2694 5.45261 20.1448 5.42285 20.0439H3.64648V19.0439H6.92871C6.92341 18.9376 6.92764 18.8395 6.93359 18.7578C6.94922 18.5441 6.9677 18.4441 6.96777 18.3125C6.96777 16.6665 8.22613 15.3132 9.83301 15.1631L10.9961 11.6475C11.1502 11.1749 11.3565 10.7747 11.6699 10.4531C11.8975 10.2198 12.1651 10.0458 12.4727 9.91211C12.4551 9.88872 12.437 9.86565 12.4199 9.8418V9.84082C11.5445 8.61623 11.471 6.96293 12.1416 5.55957L12.1797 5.49316C12.2223 5.43068 12.2794 5.37861 12.3457 5.34082ZM6.49219 20.1348C6.57273 20.4047 6.68063 20.763 6.82324 21.2285L7.3623 22.9678V22.9688C7.48606 23.3669 7.6791 23.417 7.70898 23.417H24.7959C24.8247 23.417 25.0144 23.3667 25.1387 22.9785C25.1395 22.9754 25.1397 22.9718 25.1406 22.9688C25.5776 21.5668 25.848 20.6747 26.0088 20.1348C26.0181 20.1035 26.0266 20.0729 26.0352 20.0439H6.46582C6.47443 20.0729 6.48286 20.1035 6.49219 20.1348ZM10.1309 16.1494C8.9368 16.1494 7.96777 17.1184 7.96777 18.3125C7.96769 18.4868 7.93873 18.72 7.93066 18.8301C7.92291 18.9364 7.92758 19.0023 7.93359 19.0439H12.043L12.0566 19.0186C12.1704 18.8015 12.2155 18.7287 12.25 18.6357C12.2735 18.5722 12.2939 18.4914 12.2939 18.3125C12.2939 17.1186 11.3247 16.1496 10.1309 16.1494ZM10.8623 15.2354C12.2559 15.5658 13.2939 16.8181 13.2939 18.3125C13.2939 18.5769 13.2624 18.7813 13.1875 18.9834C13.18 19.0037 13.1706 19.0236 13.1621 19.0439H24.3877L23.8906 17.5215H18.2822V16.5215H23.5635L22.4561 13.1328C22.4398 13.1372 22.424 13.1441 22.4072 13.1475C22.2382 13.1812 22.0899 13.1536 21.9941 13.1299C21.8109 13.0844 21.7626 13.0574 21.6943 13.0479V13.7148C21.6941 14.5061 21.1112 15.2358 20.2803 15.2881C20.0106 15.305 19.7697 15.2523 19.5625 15.1445C19.3475 15.7163 18.8168 16.1428 18.1689 16.1475L17.9971 16.1396C17.1698 16.0521 16.6398 15.2949 16.6396 14.5342V13.0459H11.5869L10.8623 15.2354ZM18.3047 10.4189C18.2809 10.4885 18.2558 10.5579 18.2285 10.627C18.2057 10.6846 18.172 10.7377 18.1299 10.7832L17.9854 10.9385C17.9428 10.9843 17.8912 11.0217 17.835 11.0488C16.2781 11.7967 14.5024 11.6083 13.2607 10.6914L13.1465 10.7275C12.7861 10.8391 12.5548 10.977 12.3857 11.1504C12.2143 11.3263 12.0718 11.5744 11.9463 11.96V11.9619L11.9189 12.0459H17.1396C17.4153 12.0462 17.6392 12.2703 17.6396 12.5459V14.5342C17.6398 14.8835 17.8776 15.1208 18.1025 15.1445L18.207 15.1436C18.4477 15.1133 18.6669 14.8947 18.667 14.583V12.708C18.6674 12.4322 18.8911 12.208 19.167 12.208C19.4427 12.2082 19.6666 12.4323 19.667 12.708C19.667 13.0211 19.6678 13.4845 19.7773 13.8574C19.8312 14.0405 19.8979 14.1539 19.9619 14.2148C20.0096 14.2602 20.0764 14.2988 20.2168 14.29H20.2178C20.4563 14.2748 20.6941 14.0463 20.6943 13.7148V12.5439C20.6946 12.2681 20.9185 12.0441 21.1943 12.0439H21.6299C21.7864 12.044 21.9197 12.0713 22.0234 12.0986C22.0616 12.1087 22.0977 12.1197 22.1279 12.1289L22.0723 11.957C21.7916 11.0971 21.0215 10.4972 20.1289 10.4258L19.9492 10.4189H18.3047ZM16.1133 6.16504C15.3716 5.70986 14.4258 5.62134 13.5312 5.90723L13.665 6.00293H13.666V6.00391L13.668 6.00488C13.6692 6.00575 13.6708 6.00728 13.6729 6.00879C13.6776 6.01221 13.6854 6.01699 13.6943 6.02344C13.7123 6.03639 13.7382 6.05573 13.7715 6.08008C13.8385 6.12906 13.9354 6.20002 14.0537 6.28906C14.2901 6.46705 14.6153 6.71847 14.9717 7.00977C15.6739 7.58366 16.5359 8.34616 17.0557 9.03027L17.3584 9.42871L16.5615 10.0332L16.2588 9.63477C15.8168 9.05316 15.0372 8.35488 14.3389 7.78418C13.9951 7.50323 13.6808 7.26003 13.4521 7.08789C13.3381 7.00204 13.2453 6.93422 13.1816 6.8877C13.1499 6.86447 13.1248 6.84586 13.1084 6.83398C13.1004 6.82821 13.0938 6.82414 13.0898 6.82129C13.0882 6.8201 13.0868 6.81901 13.0859 6.81836L13.085 6.81738L12.8115 6.62207C12.5614 7.5597 12.7122 8.53046 13.2324 9.25879C14.0608 10.4155 15.7795 10.881 17.3242 10.1807L17.3252 10.1787C17.9124 8.5884 17.3275 6.90938 16.1143 6.16602L16.1133 6.16504ZM19.9053 6.91016C19.4996 6.91019 19.243 6.96269 19.0371 7.05664C18.829 7.15165 18.6296 7.30886 18.3672 7.59082L18.3623 7.59473C18.5376 8.17084 18.5976 8.79267 18.5283 9.41895H19.9492L20.209 9.42969C21.0163 9.49433 21.7552 9.85788 22.2949 10.4258C22.3617 10.3218 22.4044 10.2399 22.4336 10.1582C22.4831 10.0194 22.5107 9.84465 22.5107 9.51465C22.5106 8.07646 21.3435 6.91016 19.9053 6.91016Z" fill="#C33C1D"/>
</g>
</svg>
