<?xml version="1.0" encoding="UTF-8" standalone="no"?>
<!DOCTYPE svg PUBLIC "-//W3C//DTD SVG 1.1//EN" "http://www.w3.org/Graphics/SVG/1.1/DTD/svg11.dtd">
<svg xmlns="http://www.w3.org/2000/svg" xmlns:xlink="http://www.w3.org/1999/xlink" version="1.1" width="196.85027pt" height="196.85027pt" viewBox="0 0 196.85027 196.85027">
<g enable-background="new">
<clipPath id="cp0">
<path transform="matrix(2.7777777,0,0,-2.7777777,0,196.85027)" d="M 0 0 L 70.866 0 L 70.866 70.866 L 0 70.866 Z "/>
</clipPath>
<g clip-path="url(#cp0)">
<path transform="matrix(2.7777777,0,0,-2.7777777,158.02639,70.251659)" stroke-width="1.2" stroke-linecap="butt" stroke-miterlimit="10" stroke-linejoin="miter" fill="none" stroke="#c15a2d" d="M 0 0 C 0 -2.385 -1.933 -4.318 -4.318 -4.318 C -6.702 -4.318 -8.635 -2.385 -8.635 0 C -8.635 2.385 -6.702 4.318 -4.318 4.318 C -1.933 4.318 0 2.385 0 0 Z "/>
<path transform="matrix(2.7777777,0,0,-2.7777777,106.03249,31.960825)" stroke-width="1" stroke-linecap="butt" stroke-miterlimit="10" stroke-linejoin="miter" fill="none" stroke="#c15a2d" d="M 0 0 L -.931 0 L -.931 -2.862 L -.256 -2.862 C .319 -2.862 .776 -2.747 1.114 -2.518 C 1.451 -2.288 1.62 -1.917 1.62 -1.404 C 1.62 -.468 1.08 0 0 0 Z M .108 1.674 C 1.35 1.674 2.257 1.406 2.828 .87 C 3.399 .335 3.686 -.4 3.686 -1.337 C 3.686 -1.903 3.568 -2.43 3.334 -2.916 C 3.1 -3.402 2.711 -3.793 2.167 -4.091 C 1.622 -4.388 .882 -4.536 -.054 -4.536 L -.931 -4.536 L -.931 -7.965 L -2.97 -7.965 L -2.97 1.674 L .108 1.674 Z "/>
<path transform="matrix(2.7777777,0,0,-2.7777777,0,196.85027)" d="M 27.9335 55.3424 L 27.9195 55.4624 L 27.8975 55.6804 L 27.8695 56.1184 C 27.8645 56.4094 27.8535 56.7024 27.8745 56.9934 C 27.8975 57.5774 27.9785 58.1594 28.1075 58.7284 C 28.3595 59.8684 28.8175 60.9664 29.4545 61.9464 C 30.7205 63.9094 32.6875 65.4174 34.9265 66.1014 C 37.1635 66.7874 39.6305 66.6644 41.7875 65.7564 C 43.9535 64.8554 45.7415 63.1474 46.8155 61.0734 C 47.8915 58.9904 48.1665 56.5284 47.6395 54.2544 C 47.1325 51.9674 45.7575 49.8994 43.8835 48.5074 C 42.0235 47.0854 39.6405 46.3804 37.3095 46.5274 C 34.9915 46.6554 32.6645 47.6304 31.0235 49.2314 C 31.0145 49.2744 30.9625 49.6094 31.2235 49.8644 C 31.4815 50.1174 31.8085 50.1084 31.8485 50.1084 C 33.2935 48.6964 35.3365 47.8454 37.3785 47.7304 C 39.4315 47.6004 41.5275 48.2194 43.1615 49.4704 C 44.8125 50.6984 46.0215 52.5144 46.4665 54.5264 C 46.9295 56.5274 46.6885 58.6974 45.7425 60.5264 C 44.7975 62.3464 43.2215 63.8574 41.3195 64.6464 C 39.4235 65.4444 37.2485 65.5534 35.2815 64.9504 C 33.3145 64.3494 31.5815 63.0214 30.4675 61.2944 C 29.9075 60.4334 29.5045 59.4684 29.2825 58.4644 C 29.1695 57.9634 29.0975 57.4524 29.0775 56.9384 C 29.0585 56.6814 29.0695 56.4234 29.0735 56.1664 L 29.0975 55.7814 C 29.1065 55.6434 29.1275 55.5194 29.1295 55.4834 C 29.1045 55.4474 28.9365 55.1834 28.5985 55.1294 C 28.2225 55.0704 27.9615 55.3114 27.9335 55.3424 " fill="#c15a2d"/>
<path transform="matrix(2.7777777,0,0,-2.7777777,0,196.85027)" d="M 42.5787 12.9537 L 24.4137 12.9537 L 19.8317 12.9537 L 17.5407 12.9537 C 17.1387 12.9587 16.8247 12.9417 16.3487 12.9657 C 15.8757 12.9987 15.4117 13.1507 15.0067 13.3937 C 14.1857 13.8727 13.6227 14.7527 13.5137 15.6967 C 13.4907 15.9487 13.4917 16.1497 13.4947 16.3317 L 13.4967 16.9077 L 13.5007 18.0577 L 13.5167 22.6617 L 13.5247 24.9627 L 13.5297 26.1137 C 13.5627 26.5287 13.6207 26.9517 13.7327 27.3547 C 14.1577 28.9907 15.1677 30.3557 16.3107 31.4627 L 16.7437 31.8627 C 16.8657 31.9747 16.9867 32.0987 17.1047 32.2277 C 17.3407 32.4897 17.5647 32.7747 17.7777 33.0697 C 18.1787 33.6477 18.6467 34.3317 18.8027 34.8737 L 20.2677 39.2327 L 21.0047 41.4177 C 21.2837 42.2227 21.7597 42.9857 22.4107 43.5657 C 23.0607 44.1457 23.8427 44.5477 24.6747 44.7577 C 25.0847 44.8767 25.5807 44.8857 25.9427 44.8937 L 27.0977 44.9077 C 30.1427 44.9227 33.2557 44.8927 36.2297 44.8657 C 36.2617 44.8387 36.5167 44.6227 36.5117 44.2587 C 36.5077 43.8977 36.2507 43.6877 36.2177 43.6617 C 33.2487 43.6887 30.1317 43.7177 27.1057 43.7037 C 26.3537 43.6787 25.5457 43.7397 24.9667 43.5887 C 24.3187 43.4257 23.7047 43.1077 23.2157 42.6697 C 22.7237 42.2307 22.3657 41.6607 22.1427 41.0237 L 21.4157 38.8677 L 19.9607 34.5417 C 19.9167 34.4037 19.8097 34.0707 19.7117 33.9037 C 19.6157 33.7137 19.5157 33.5397 19.4127 33.3657 C 19.2077 33.0217 18.9887 32.6907 18.7557 32.3657 C 18.5217 32.0417 18.2737 31.7257 17.9977 31.4197 C 17.8597 31.2667 17.7137 31.1167 17.5537 30.9717 L 17.1457 30.5947 C 16.1067 29.5907 15.2417 28.3897 14.8987 27.0487 C 14.8047 26.7157 14.7597 26.3787 14.7307 26.0337 L 14.7277 24.8937 L 14.7197 22.6137 L 14.7047 18.0537 L 14.7007 16.9137 L 14.6987 16.3437 C 14.6957 16.1447 14.6987 15.9637 14.7107 15.8347 C 14.7787 15.2607 15.1197 14.7207 15.6237 14.4277 C 15.8727 14.2797 16.1527 14.1857 16.4437 14.1667 C 16.7297 14.1497 17.1807 14.1617 17.5407 14.1587 L 19.8317 14.1587 L 24.4137 14.1587 L 42.5787 14.1587 C 42.6157 14.1287 42.8687 13.9307 42.8687 13.5887 C 42.8687 13.2087 42.6087 12.9777 42.5787 12.9537 " fill="#c15a2d"/>
<path transform="matrix(2.7777777,0,0,-2.7777777,0,196.85027)" d="M 41.6933 31.5645 L 41.6093 31.5645 L 31.9203 31.5645 L 27.0763 31.5645 L 25.8643 31.5645 L 25.1963 31.5645 C 24.9623 31.6035 24.8793 31.6505 24.7793 31.6785 L 24.4713 31.7875 C 23.6553 32.0945 22.8943 32.5345 22.2143 33.0565 L 22.1963 33.0705 C 22.1823 33.1125 22.1053 33.4485 22.3383 33.7275 C 22.5703 34.0055 22.8903 34.0205 22.9313 34.0255 L 22.9473 34.0125 C 23.5473 33.5525 24.2003 33.1765 24.8963 32.9145 L 25.1593 32.8215 L 25.3223 32.7695 L 25.8643 32.7695 L 27.0763 32.7695 L 31.9203 32.7695 L 41.6093 32.7695 L 41.6933 32.7695 C 41.7303 32.7395 41.9833 32.5415 41.9833 32.1995 C 41.9833 31.8195 41.7233 31.5885 41.6933 31.5645 " fill="#c15a2d"/>
<path transform="matrix(2.7777777,0,0,-2.7777777,0,196.85027)" d="M 40.9879 18.2398 L 40.9029 18.2398 L 29.7369 18.2398 L 29.7149 18.2398 C 29.6819 18.2658 29.4259 18.4798 29.4269 18.8438 C 29.4269 19.2058 29.6819 19.4178 29.7149 19.4448 L 29.7369 19.4448 L 40.9029 19.4448 L 40.9879 19.4448 C 41.0249 19.4148 41.2779 19.2168 41.2779 18.8748 C 41.2779 18.4948 41.0179 18.2638 40.9879 18.2398 " fill="#c15a2d"/>
<path transform="matrix(2.7777777,0,0,-2.7777777,0,196.85027)" d="M 19.679 26.4963 L 19.742 26.4473 C 20.748 25.6853 21.83 25.0723 23.062 25.2363 L 27.091 25.2363 L 27.113 25.2363 C 27.146 25.2103 27.403 24.9963 27.402 24.6333 C 27.401 24.2713 27.146 24.0583 27.113 24.0323 L 27.091 24.0323 L 23.062 24.0323 L 22.558 24.0323 L 22.306 24.0323 C 22.277 24.0223 22 24.0403 21.95 24.0613 C 21.572 24.1273 21.209 24.2423 20.864 24.3823 C 20.173 24.6653 19.56 25.0613 18.999 25.4993 L 18.928 25.5543 C 18.915 25.6023 18.836 25.9243 19.058 26.1843 C 19.306 26.4733 19.642 26.4933 19.679 26.4963 " fill="#c15a2d"/>
<path transform="matrix(2.7777777,0,0,-2.7777777,0,196.85027)" d="M 21.1507 12.9537 L 21.0657 12.9537 L 16.9257 12.9537 L 16.9257 10.9237 L 16.9257 9.5737 L 16.9297 8.9257 C 16.9357 8.7717 16.9687 8.6207 17.0277 8.4797 C 17.1477 8.1977 17.3737 7.9607 17.6487 7.8257 C 17.9287 7.6757 18.1937 7.6867 18.7017 7.6907 L 21.4007 7.6907 L 24.1007 7.6907 C 24.3097 7.6937 24.5857 7.6867 24.7397 7.6957 C 24.8937 7.7047 25.0437 7.7407 25.1847 7.8017 C 25.4667 7.9217 25.6997 8.1547 25.8297 8.4307 C 25.8957 8.5687 25.9357 8.7187 25.9497 8.8717 C 25.9617 8.9927 25.9537 9.2927 25.9557 9.4947 L 25.9557 10.8447 L 25.9557 12.9537 L 21.7297 12.9537 C 21.6967 12.9797 21.4407 13.1937 21.4407 13.5577 C 21.4417 13.9197 21.6967 14.1317 21.7297 14.1587 L 24.1477 14.1587 L 25.3587 14.1587 L 25.9737 14.1587 C 26.3667 14.1477 26.8057 14.1827 27.1607 14.1337 L 27.1607 10.8447 L 27.1607 9.4947 C 27.1557 9.2467 27.1707 9.0957 27.1497 8.7687 C 27.1237 8.4737 27.0447 8.1817 26.9177 7.9137 C 26.6637 7.3777 26.2167 6.9367 25.6707 6.6997 C 25.3997 6.5807 25.1057 6.5107 24.8107 6.4937 C 24.5157 6.4797 24.3407 6.4897 24.1007 6.4867 L 21.4007 6.4867 L 18.7017 6.4867 C 18.4597 6.4907 18.2957 6.4767 17.9667 6.4997 C 17.6717 6.5307 17.3817 6.6137 17.1157 6.7447 C 16.5827 7.0067 16.1517 7.4617 15.9187 8.0087 C 15.8037 8.2827 15.7387 8.5777 15.7257 8.8727 L 15.7217 9.5737 L 15.7217 10.9237 L 15.7217 12.2737 L 15.7217 12.9487 L 15.7217 13.6177 L 15.7217 13.9557 L 15.7217 14.1247 C 15.7097 14.1917 15.8147 14.1427 15.8557 14.1587 L 21.0657 14.1587 L 21.1507 14.1587 C 21.1877 14.1287 21.4407 13.9307 21.4407 13.5887 C 21.4407 13.2087 21.1807 12.9777 21.1507 12.9537 " fill="#c15a2d"/>
<path transform="matrix(2.7777777,0,0,-2.7777777,0,196.85027)" d="M 18.4256 32.7795 L 18.3416 32.7795 L 14.7896 32.7795 L 13.0136 32.7795 L 12.0156 32.7795 L 11.1406 32.7925 C 11.0926 32.7815 11.0806 32.8065 11.0866 32.8525 L 11.0796 32.9615 L 11.0646 33.1805 L 11.0426 33.6185 C 11.0386 33.7525 11.0246 33.9365 11.0306 34.0305 L 11.0386 34.2745 C 11.0506 34.4375 11.0596 34.5995 11.0846 34.7615 C 11.1246 35.0865 11.1906 35.4095 11.2906 35.7275 C 11.4806 36.3625 11.8006 36.9835 12.2706 37.4995 C 12.3866 37.6295 12.5146 37.7505 12.6486 37.8625 L 12.9986 38.1425 L 13.4306 38.1425 L 14.3186 38.1425 L 16.0946 38.1425 L 16.1166 38.1425 C 16.1496 38.1165 16.4056 37.9025 16.4056 37.5385 C 16.4046 37.1775 16.1496 36.9645 16.1166 36.9385 L 16.0946 36.9385 L 14.3186 36.9385 L 13.4306 36.9385 C 13.4076 36.9375 13.4226 36.9405 13.4226 36.9405 C 13.3306 36.8625 13.2426 36.7795 13.1616 36.6885 C 12.8326 36.3285 12.5906 35.8735 12.4426 35.3765 C 12.3646 35.1295 12.3116 34.8705 12.2786 34.6075 C 12.2586 34.4765 12.2526 34.3435 12.2416 34.2115 L 12.2346 33.9845 L 18.3416 33.9845 L 18.4256 33.9845 C 18.4626 33.9545 18.7156 33.7565 18.7156 33.4145 C 18.7156 33.0345 18.4556 32.8035 18.4256 32.7795 " fill="#c15a2d"/>
<path transform="matrix(2.7777777,0,0,-2.7777777,0,196.85027)" d="M 49.6699 5.2079 L 49.6699 5.2929 L 49.6699 16.9289 L 49.6699 16.9509 C 49.6959 16.9839 49.9099 17.2399 50.2739 17.2389 C 50.6359 17.2389 50.8479 16.9839 50.8739 16.9509 L 50.8739 16.9289 L 50.8739 5.2929 L 50.8739 5.2079 C 50.8449 5.1709 50.6469 4.9179 50.3039 4.9179 C 49.9249 4.9179 49.6939 5.1779 49.6699 5.2079 " fill="#c15a2d"/>
<path transform="matrix(2.7777777,0,0,-2.7777777,0,196.85027)" d="M 54.3157 5.2079 L 54.3157 5.2929 L 54.3157 16.9289 L 54.3157 16.9509 C 54.3417 16.9839 54.5557 17.2399 54.9197 17.2389 C 55.2817 17.2389 55.4937 16.9839 55.5197 16.9509 L 55.5197 16.9289 L 55.5197 5.2929 L 55.5197 5.2079 C 55.4907 5.1709 55.2927 4.9179 54.9497 4.9179 C 54.5707 4.9179 54.3397 5.1779 54.3157 5.2079 " fill="#c15a2d"/>
<path transform="matrix(2.7777777,0,0,-2.7777777,0,196.85027)" d="M 44.7849 20.1555 L 44.7849 20.2405 L 44.7849 39.3065 C 45.1059 39.3505 45.5049 39.3185 45.8599 39.3285 L 46.4739 39.3285 L 47.5719 39.3285 L 49.7679 39.3285 L 49.7889 39.3285 C 49.8219 39.3025 50.0789 39.0885 50.0779 38.7245 C 50.0769 38.3625 49.8219 38.1505 49.7889 38.1245 L 49.7679 38.1245 L 45.9889 38.1245 L 45.9889 20.2405 L 45.9889 20.1555 C 45.9599 20.1185 45.7619 19.8655 45.4189 19.8655 C 45.0399 19.8655 44.8089 20.1255 44.7849 20.1555 " fill="#c15a2d"/>
<path transform="matrix(2.7777777,0,0,-2.7777777,0,196.85027)" d="M 58.6327 20.1555 L 58.6327 20.2405 L 58.6327 38.1245 L 54.8547 38.1245 L 54.8327 38.1245 C 54.7997 38.1505 54.5437 38.3645 54.5437 38.7275 C 54.5447 39.0895 54.7997 39.3015 54.8327 39.3285 L 54.8547 39.3285 L 57.0507 39.3285 L 58.1487 39.3285 L 58.7617 39.3285 C 59.1177 39.3185 59.5157 39.3505 59.8367 39.3065 L 59.8367 20.2405 L 59.8367 20.1555 C 59.8077 20.1185 59.6097 19.8655 59.2667 19.8655 C 58.8877 19.8655 58.6567 20.1255 58.6327 20.1555 " fill="#c15a2d"/>
</g>
</g>
</svg>
