<?xml version="1.0" encoding="UTF-8" standalone="no"?>
<!DOCTYPE svg PUBLIC "-//W3C//DTD SVG 1.1//EN" "http://www.w3.org/Graphics/SVG/1.1/DTD/svg11.dtd">
<svg xmlns="http://www.w3.org/2000/svg" xmlns:xlink="http://www.w3.org/1999/xlink" version="1.1" width="196.85027pt" height="196.85027pt" viewBox="0 0 196.85027 196.85027">
<g enable-background="new">
<clipPath id="cp0">
<path transform="matrix(2.7777777,0,0,-2.7777777,0,196.85027)" d="M 0 0 L 70.866 0 L 70.866 70.866 L 0 70.866 Z "/>
</clipPath>
<g clip-path="url(#cp0)">
<path transform="matrix(2.7777777,0,0,-2.7777777,91.649997,34.68582)" stroke-width="1.2" stroke-linecap="butt" stroke-miterlimit="10" stroke-linejoin="miter" fill="none" stroke="#c15a2d" d="M 0 0 C 0 -3.032 -2.458 -5.49 -5.49 -5.49 C -8.522 -5.49 -10.98 -3.032 -10.98 0 C -10.98 3.032 -8.522 5.49 -5.49 5.49 C -2.458 5.49 0 3.032 0 0 Z "/>
<path transform="matrix(2.7777777,0,0,-2.7777777,0,196.85027)" d="M 43.3348 7.3696 L 43.3248 7.4106 C 43.2448 7.6626 42.9908 7.8536 42.7238 7.8406 C 42.4598 7.8406 42.2048 7.6466 42.1408 7.3886 C 42.0678 7.1326 42.1768 6.8376 42.4088 6.7006 C 42.6308 6.5566 42.9478 6.5796 43.1438 6.7606 L 43.1518 6.7676 C 43.1768 6.7466 43.4358 6.7216 43.7488 6.5406 C 44.0698 6.3526 44.0018 5.9336 43.9658 5.8796 L 43.9418 5.8576 C 43.3598 5.3276 42.4298 5.2516 41.7688 5.6796 C 41.0948 6.0826 40.7598 6.9576 40.9798 7.7096 C 41.1758 8.4726 41.9158 9.0416 42.7018 9.0456 C 43.4888 9.0746 44.2438 8.5256 44.4728 7.7746 L 44.5058 7.6526 C 44.5068 7.5816 44.3378 7.2006 43.9878 7.2236 C 43.6088 7.2516 43.3668 7.3766 43.3348 7.3696 " fill="#c15a2d"/>
<path transform="matrix(2.7777777,0,0,-2.7777777,0,196.85027)" d="M 50.024 7.3696 L 50.014 7.4106 C 49.934 7.6626 49.68 7.8536 49.413 7.8406 C 49.149 7.8406 48.894 7.6466 48.83 7.3886 C 48.757 7.1326 48.866 6.8376 49.098 6.7006 C 49.32 6.5566 49.637 6.5796 49.833 6.7606 L 49.841 6.7676 C 49.866 6.7466 50.125 6.7216 50.438 6.5406 C 50.759 6.3526 50.691 5.9336 50.655 5.8796 L 50.631 5.8576 C 50.049 5.3276 49.119 5.2516 48.458 5.6796 C 47.784 6.0826 47.449 6.9576 47.669 7.7096 C 47.865 8.4726 48.605 9.0416 49.391 9.0456 C 50.178 9.0746 50.933 8.5256 51.162 7.7746 L 51.195 7.6526 C 51.196 7.5816 51.027 7.2006 50.677 7.2236 C 50.298 7.2516 50.056 7.3766 50.024 7.3696 " fill="#c15a2d"/>
<path transform="matrix(2.7777777,0,0,-2.7777777,0,196.85027)" d="M 51.8501 22.4787 L 51.8501 23.9977 L 51.8501 24.3987 C 51.8481 24.5037 51.8431 24.5717 51.8211 24.6567 C 51.7831 24.8167 51.7041 24.9677 51.5901 25.0887 C 51.4791 25.2137 51.3331 25.3027 51.1771 25.3567 C 51.0201 25.4127 50.8811 25.4067 50.5711 25.4067 L 48.9651 25.4067 L 42.5401 25.4067 L 40.9341 25.4067 C 40.6201 25.4107 40.5251 25.4067 40.3521 25.3447 C 40.1961 25.2897 40.0581 25.1887 39.9481 25.0637 C 39.8391 24.9377 39.7671 24.7837 39.7311 24.6227 C 39.7021 24.5007 39.7151 24.2137 39.7121 23.9417 L 39.7121 22.3347 L 39.7121 15.9097 L 39.7121 12.6977 L 39.7121 11.0917 C 39.7311 10.5817 39.6651 9.9227 39.7691 9.6967 C 39.8731 9.3817 40.1611 9.1357 40.4811 9.0657 C 40.5731 9.0497 40.6231 9.0427 40.7521 9.0427 L 41.1541 9.0427 L 41.9571 9.0427 L 45.1691 9.0427 L 48.3821 9.0427 L 49.9881 9.0427 L 50.7911 9.0427 C 51.0191 9.0387 51.1411 9.0687 51.3021 9.1447 C 51.6031 9.2887 51.8141 9.5977 51.8451 9.9267 L 51.8501 11.4747 L 51.8501 14.6647 C 51.8761 14.6977 52.0901 14.9537 52.4541 14.9537 C 52.8161 14.9527 53.0281 14.6977 53.0541 14.6647 L 53.0541 11.4747 C 53.0501 10.9137 53.0651 10.4617 53.0441 9.8107 C 52.9761 9.0707 52.5041 8.3857 51.8351 8.0647 C 51.5171 7.8967 51.0991 7.8267 50.7911 7.8387 L 49.9881 7.8387 L 48.3821 7.8387 L 45.1691 7.8387 L 41.9571 7.8387 L 41.1541 7.8387 L 40.7521 7.8387 C 40.6141 7.8367 40.3961 7.8507 40.2251 7.8897 C 39.4991 8.0457 38.8731 8.5907 38.6331 9.2947 C 38.4971 9.6337 38.5031 10.0677 38.5071 10.2887 L 38.5071 11.0917 L 38.5071 12.6977 L 38.5071 15.9097 L 38.5071 22.3347 L 38.5071 23.9417 C 38.5171 24.2027 38.4801 24.4567 38.5511 24.8617 C 38.6271 25.2237 38.7921 25.5687 39.0341 25.8477 C 39.2751 26.1267 39.5851 26.3477 39.9341 26.4737 C 40.2631 26.6137 40.7151 26.6187 40.9341 26.6107 L 42.5401 26.6107 L 48.9651 26.6107 L 50.5711 26.6107 C 50.7951 26.6117 51.2021 26.6277 51.5551 26.5007 C 51.9061 26.3827 52.2281 26.1787 52.4761 25.9047 C 52.7281 25.6347 52.9071 25.2977 52.9931 24.9377 C 53.0381 24.7617 53.0541 24.5617 53.0541 24.3987 L 53.0541 23.9977 L 53.0541 22.4787 C 53.0251 22.4417 52.8271 22.1887 52.4841 22.1887 C 52.1051 22.1887 51.8741 22.4487 51.8501 22.4787 " fill="#c15a2d"/>
<path transform="matrix(2.7777777,0,0,-2.7777777,0,196.85027)" d="M 48.1391 26.2989 L 48.1391 26.3829 L 48.1391 31.4829 L 48.1391 32.7579 L 48.1371 33.0509 C 48.1361 33.0929 48.1291 33.1319 48.1131 33.1689 C 48.0851 33.2429 48.0301 33.3109 47.9591 33.3519 C 47.9251 33.3719 47.8881 33.3899 47.8481 33.3969 C 47.8021 33.4049 47.7961 33.4069 47.6611 33.4069 L 47.0241 33.4069 L 45.7491 33.4069 L 44.4741 33.4069 L 43.8361 33.4069 C 43.7011 33.4079 43.6611 33.3849 43.5821 33.3389 C 43.5141 33.2929 43.4651 33.2219 43.4401 33.1469 C 43.4281 33.1019 43.4251 33.0809 43.4231 33.0129 L 43.4231 32.6939 L 43.4231 31.4189 L 43.4231 26.3189 L 43.4231 26.2969 C 43.3961 26.2649 43.1831 26.0079 42.8191 26.0089 C 42.4571 26.0099 42.2451 26.2639 42.2181 26.2969 L 42.2181 26.3189 L 42.2181 31.4189 L 42.2181 32.6939 L 42.2181 33.0129 C 42.2181 33.1559 42.2391 33.3479 42.2911 33.5069 C 42.3961 33.8359 42.6071 34.1279 42.8891 34.3249 C 43.1581 34.5229 43.5461 34.6229 43.8361 34.6109 L 44.4741 34.6109 L 45.7491 34.6109 L 47.0241 34.6109 L 47.6611 34.6109 C 47.7381 34.6129 47.9461 34.6119 48.1081 34.5729 C 48.2771 34.5379 48.4381 34.4699 48.5851 34.3809 C 48.8801 34.2039 49.1111 33.9269 49.2361 33.6049 C 49.3001 33.4449 49.3341 33.2729 49.3411 33.1029 L 49.3441 32.7579 L 49.3441 31.4829 L 49.3441 26.3829 L 49.3441 26.2989 C 49.3141 26.2619 49.1161 26.0089 48.7731 26.0089 C 48.3941 26.0089 48.1631 26.2689 48.1391 26.2989 " fill="#c15a2d"/>
<path transform="matrix(2.7777777,0,0,-2.7777777,0,196.85027)" d="M 23.9908 6.2934 L 23.9908 6.3774 L 23.9908 21.2784 L 23.9908 21.3004 C 24.0168 21.3334 24.2308 21.5904 24.5948 21.5894 C 24.9568 21.5884 25.1688 21.3334 25.1948 21.3004 L 25.1948 21.2784 L 25.1948 6.3774 L 25.1948 6.2934 C 25.1658 6.2564 24.9678 6.0034 24.6248 6.0034 C 24.2458 6.0034 24.0148 6.2634 23.9908 6.2934 " fill="#c15a2d"/>
<path transform="matrix(2.7777777,0,0,-2.7777777,0,196.85027)" d="M 29.8675 6.2934 L 29.8675 6.3774 L 29.8675 21.2784 L 29.8675 21.3004 C 29.8935 21.3334 30.1075 21.5904 30.4715 21.5894 C 30.8335 21.5884 31.0455 21.3334 31.0715 21.3004 L 31.0715 21.2784 L 31.0715 6.3774 L 31.0715 6.2934 C 31.0425 6.2564 30.8445 6.0034 30.5015 6.0034 C 30.1225 6.0034 29.8915 6.2634 29.8675 6.2934 " fill="#c15a2d"/>
<path transform="matrix(2.7777777,0,0,-2.7777777,0,196.85027)" d="M 17.8115 25.2012 L 17.8115 25.2862 L 17.8115 49.3422 C 17.9895 49.4002 18.2675 49.3582 18.4905 49.3712 L 19.1075 49.3712 L 19.8155 49.3712 L 21.2305 49.3712 L 24.0585 49.3712 C 24.0915 49.3452 24.3475 49.1312 24.3475 48.7672 C 24.3465 48.4062 24.0915 48.1932 24.0585 48.1672 L 19.0155 48.1672 L 19.0155 25.2862 L 19.0155 25.2012 C 18.9865 25.1642 18.7885 24.9112 18.4455 24.9112 C 18.0665 24.9112 17.8355 25.1712 17.8115 25.2012 " fill="#c15a2d"/>
<path transform="matrix(2.7777777,0,0,-2.7777777,0,196.85027)" d="M 45.3752 33.4775 L 45.2922 33.4945 L 35.4202 35.5275 C 35.3902 35.5365 35.3492 35.5365 35.3282 35.5525 L 35.3282 35.6525 L 35.3282 35.8515 L 35.3282 36.2505 L 35.3282 36.7885 L 35.3282 37.5865 L 35.3282 39.1815 L 35.3282 42.3725 L 35.3282 48.1665 L 30.2852 48.1665 C 30.2532 48.1935 29.9962 48.4065 29.9972 48.7705 C 29.9972 49.1325 30.2522 49.3445 30.2852 49.3715 L 33.1142 49.3715 L 34.5292 49.3715 L 35.2372 49.3715 L 35.8542 49.3715 C 36.0772 49.3585 36.3542 49.4005 36.5322 49.3425 L 36.5322 36.5285 L 45.5352 34.6745 L 45.6182 34.6575 C 45.6482 34.6205 45.8562 34.3755 45.7872 34.0405 C 45.7112 33.6685 45.4092 33.4955 45.3752 33.4775 " fill="#c15a2d"/>
<path transform="matrix(2.7777777,0,0,-2.7777777,0,196.85027)" d="M 48.4511 31.233 L 48.3671 31.233 L 43.1311 31.233 L 43.1091 31.233 C 43.0761 31.259 42.8201 31.473 42.8201 31.837 C 42.8211 32.199 43.0761 32.411 43.1091 32.438 L 43.1311 32.438 L 48.3671 32.438 L 48.4511 32.438 C 48.4881 32.408 48.7411 32.21 48.7411 31.868 C 48.7411 31.488 48.4811 31.257 48.4511 31.233 " fill="#c15a2d"/>
</g>
</g>
</svg>
