<?xml version="1.0" encoding="UTF-8" standalone="no"?>
<!DOCTYPE svg PUBLIC "-//W3C//DTD SVG 1.1//EN" "http://www.w3.org/Graphics/SVG/1.1/DTD/svg11.dtd">
<svg xmlns="http://www.w3.org/2000/svg" xmlns:xlink="http://www.w3.org/1999/xlink" version="1.1" width="196.85027pt" height="196.85027pt" viewBox="0 0 196.85027 196.85027">
<g enable-background="new">
<clipPath id="cp0">
<path transform="matrix(2.7777777,0,0,-2.7777777,0,196.85027)" d="M 0 0 L 70.866 0 L 70.866 70.866 L 0 70.866 Z "/>
</clipPath>
<g clip-path="url(#cp0)">
<path transform="matrix(2.7777777,0,0,-2.7777777,0,196.85027)" d="M 17.0748 6.7336 L 17.0748 10.9856 L 17.0748 12.0716 L 17.0748 12.6146 C 17.0828 12.8086 17.0848 13.0256 17.1128 13.2286 C 17.2148 14.0536 17.5358 14.8516 18.0468 15.5066 C 18.5458 16.1706 19.2368 16.6836 20.0038 16.9986 C 20.3898 17.1536 20.7958 17.2566 21.2078 17.3076 C 21.6408 17.3516 22.0108 17.3416 22.3628 17.3426 L 26.7058 17.3426 L 31.0488 17.3426 C 31.3898 17.3396 31.8098 17.3536 32.2248 17.2806 C 32.6368 17.2236 33.0368 17.0956 33.4168 16.9286 C 34.1758 16.5886 34.8378 16.0446 35.3168 15.3656 C 35.7998 14.6906 36.0948 13.8796 36.1638 13.0526 C 36.2028 12.2296 36.1748 11.5776 36.1828 10.8316 L 36.1828 5.9316 C 36.2248 5.7976 36.0768 5.8536 35.9968 5.8416 L 35.7208 5.8416 L 35.1678 5.8416 L 34.5208 5.8416 L 33.4158 5.8416 L 31.2048 5.8416 L 26.7838 5.8416 L 17.9658 5.8416 C 17.9328 5.8676 17.6768 6.0816 17.6768 6.4446 C 17.6778 6.8066 17.9328 7.0186 17.9658 7.0456 L 34.9788 7.0456 L 34.9788 10.8316 C 34.9718 11.5326 34.9938 12.3296 34.9628 12.9526 C 34.9118 13.5666 34.6938 14.1656 34.3348 14.6676 C 33.9788 15.1736 33.4858 15.5786 32.9228 15.8306 C 32.6408 15.9536 32.3448 16.0496 32.0388 16.0906 C 31.7408 16.1456 31.4308 16.1356 31.0488 16.1376 L 26.7058 16.1376 L 22.3628 16.1376 C 21.9918 16.1386 21.6368 16.1426 21.3488 16.1106 C 21.0428 16.0726 20.7418 15.9966 20.4558 15.8826 C 19.8888 15.6476 19.3718 15.2686 19.0018 14.7736 C 18.6208 14.2856 18.3848 13.6946 18.3088 13.0826 C 18.2868 12.9276 18.2878 12.7806 18.2788 12.6146 L 18.2788 12.0716 L 18.2788 10.9856 L 18.2788 6.7336 C 18.2498 6.6966 18.0518 6.4436 17.7088 6.4436 C 17.3298 6.4436 17.0988 6.7036 17.0748 6.7336 " fill="#c15a2d"/>
<path transform="matrix(2.7777777,0,0,-2.7777777,0,196.85027)" d="M 34.9787 6.7336 L 34.9787 14.0946 L 34.9787 15.9436 C 34.9847 16.2706 34.9657 16.5166 34.9927 16.9146 C 35.0257 17.2816 35.1027 17.6476 35.2457 17.9906 C 35.7837 19.3806 37.2587 20.3246 38.7437 20.2436 C 40.2337 20.2056 41.6197 19.1446 42.0527 17.7176 C 42.1597 17.3636 42.2137 16.9936 42.2197 16.6266 L 42.2197 15.7016 L 42.2197 13.8526 L 42.2197 5.8706 C 42.0377 5.8116 41.7547 5.8546 41.5267 5.8416 L 40.9107 5.8416 L 40.1887 5.8416 L 38.7467 5.8416 L 35.8697 5.8416 C 35.8367 5.8676 35.5807 6.0816 35.5807 6.4446 C 35.5817 6.8066 35.8367 7.0186 35.8697 7.0456 L 41.0147 7.0456 L 41.0147 13.8526 L 41.0147 15.7016 L 41.0147 16.6266 C 41.0097 16.8756 40.9737 17.1196 40.9037 17.3556 C 40.6147 18.3056 39.6877 19.0166 38.6957 19.0396 C 37.7047 19.0946 36.7207 18.4656 36.3617 17.5366 C 36.1617 17.0776 36.1797 16.6076 36.1827 15.9436 L 36.1827 14.0946 L 36.1827 6.7336 C 36.1537 6.6966 35.9557 6.4436 35.6127 6.4436 C 35.2337 6.4436 35.0027 6.7036 34.9787 6.7336 " fill="#c15a2d"/>
<path transform="matrix(2.7777777,0,0,-2.7777777,0,196.85027)" d="M 11.0388 15.1432 L 11.0388 15.2272 L 11.0388 16.5602 C 11.0268 16.9562 11.0358 17.5872 11.2388 18.0792 C 11.5998 19.1102 12.5118 19.9162 13.5768 20.1602 C 13.8368 20.2252 14.1228 20.2482 14.3748 20.2502 L 15.0528 20.2472 C 15.5938 20.2332 16.1388 20.0922 16.6098 19.8202 C 17.5588 19.2882 18.2138 18.2582 18.2698 17.1672 L 18.2798 5.8882 C 14.8408 5.7942 14.5178 5.8622 11.0548 5.8412 C 11.0228 6.0722 11.0458 6.3592 11.0388 6.6152 L 11.0388 7.2262 L 11.0388 8.0162 L 11.0388 9.5932 C 11.0648 9.6252 11.2788 9.8822 11.6428 9.8812 C 12.0048 9.8812 12.2168 9.6262 12.2428 9.5932 L 12.2428 7.0452 L 17.0748 7.0452 L 17.0678 17.0912 C 17.0348 17.7822 16.6178 18.4342 16.0158 18.7732 C 15.7168 18.9462 15.3738 19.0322 15.0288 19.0422 L 14.3748 19.0452 C 14.1818 19.0422 14.0228 19.0292 13.8518 18.9872 C 13.1818 18.8352 12.5958 18.3212 12.3708 17.6682 C 12.2428 17.3262 12.2348 17.0492 12.2428 16.5602 L 12.2428 15.2272 L 12.2428 15.1432 C 12.2138 15.1062 12.0158 14.8532 11.6728 14.8532 C 11.2938 14.8532 11.0628 15.1132 11.0388 15.1432 " fill="#c15a2d"/>
<path transform="matrix(2.7777777,0,0,-2.7777777,0,196.85027)" d="M 14.0568 19.9377 L 14.0568 26.0237 L 14.0568 29.1067 L 14.0568 30.6487 C 14.0438 31.2207 14.1688 31.8617 14.4378 32.4027 C 14.9578 33.5077 16.0458 34.3257 17.2558 34.5117 C 17.9018 34.6037 18.3708 34.5527 18.8918 34.5667 L 20.4338 34.5667 L 26.5998 34.5667 L 32.7658 34.5667 L 34.3078 34.5667 C 34.8388 34.5527 35.2848 34.6007 35.9338 34.5227 C 37.1488 34.3577 38.2468 33.5587 38.7898 32.4647 C 39.0628 31.9227 39.2088 31.3007 39.2008 30.7067 L 39.2008 29.1647 L 39.2008 26.0817 L 39.2008 19.9357 C 39.1748 19.9037 38.9608 19.6467 38.5978 19.6477 C 38.2358 19.6477 38.0238 19.9027 37.9968 19.9357 L 37.9968 26.0817 L 37.9968 29.1647 L 37.9968 30.7067 C 38.0018 31.1417 37.9008 31.5457 37.7148 31.9217 C 37.3438 32.6707 36.5888 33.2207 35.7608 33.3307 C 35.3898 33.3847 34.8028 33.3537 34.3078 33.3617 L 32.7658 33.3617 L 26.5998 33.3617 L 20.4338 33.3617 L 18.8918 33.3617 C 18.3878 33.3537 17.8228 33.3857 17.4508 33.3237 C 16.6258 33.1987 15.8768 32.6357 15.5228 31.8797 C 15.3378 31.4967 15.2528 31.1047 15.2608 30.6487 L 15.2608 29.1067 L 15.2608 26.0237 L 15.2608 19.9377 C 15.2318 19.9007 15.0338 19.6477 14.6908 19.6477 C 14.3118 19.6477 14.0808 19.9077 14.0568 19.9377 " fill="#c15a2d"/>
<path transform="matrix(2.7777777,0,0,-2.7777777,0,196.85027)" d="M 57.7441 15.8913 C 57.7621 15.8933 57.7791 15.8963 57.7961 15.9013 C 58.1811 15.9833 58.5111 16.3123 58.5941 16.6963 C 58.6861 17.0823 58.5421 17.5083 58.2281 17.7593 C 58.0721 17.8843 57.8861 17.9653 57.6911 17.9893 C 57.6141 17.9993 57.4661 17.9993 57.3011 17.9983 L 56.8371 17.9983 L 54.9791 17.9983 L 47.5471 17.9983 L 46.6571 17.9943 C 46.4601 17.9843 46.2691 17.9123 46.1091 17.7963 C 45.7821 17.5643 45.6061 17.1483 45.6811 16.7573 C 45.7421 16.3693 46.0511 16.0243 46.4301 15.9173 C 46.5241 15.8883 46.6231 15.8783 46.7211 15.8743 L 47.1831 15.8733 L 48.1121 15.8733 L 55.5401 15.8733 C 55.5731 15.8473 55.8301 15.6333 55.8291 15.2693 C 55.8281 14.9083 55.5741 14.6953 55.5401 14.6693 L 48.1121 14.6693 L 47.1831 14.6693 L 46.7161 14.6693 C 46.5061 14.6743 46.2941 14.7003 46.0911 14.7613 C 45.2741 14.9953 44.6331 15.7123 44.4941 16.5523 C 44.3361 17.3873 44.7141 18.2893 45.4031 18.7723 C 45.7431 19.0193 46.1571 19.1723 46.5791 19.1963 C 46.9661 19.2093 47.2201 19.2003 47.5471 19.2033 L 54.9791 19.2033 L 56.8371 19.2033 L 57.3011 19.2033 C 57.4461 19.2023 57.6091 19.2093 57.8391 19.1843 C 58.2601 19.1333 58.6621 18.9583 58.9881 18.6933 C 59.6491 18.1693 59.9691 17.2473 59.7671 16.4223 C 59.5801 15.5923 58.8981 14.9113 58.0671 14.7283 C 58.0301 14.7173 57.9921 14.7103 57.9541 14.7053 C 57.8911 14.7163 57.5431 14.8923 57.5601 15.2393 C 57.5811 15.6183 57.7411 15.8603 57.7441 15.8913 " fill="#c15a2d"/>
<path transform="matrix(2.7777777,0,0,-2.7777777,0,196.85027)" d="M 52.6517 14.9811 L 52.6517 14.8971 L 52.6517 7.1521 L 52.6517 7.1301 C 52.6257 7.0981 52.4117 6.8411 52.0477 6.8421 C 51.6857 6.8431 51.4737 7.0971 51.4477 7.1301 L 51.4477 7.1521 L 51.4477 14.8971 L 51.4477 14.9811 C 51.4767 15.0181 51.6747 15.2711 52.0177 15.2711 C 52.3967 15.2711 52.6277 15.0111 52.6517 14.9811 " fill="#c15a2d"/>
<path transform="matrix(2.7777777,0,0,-2.7777777,0,196.85027)" d="M 47.3311 7.4441 L 47.4151 7.4441 L 56.6071 7.4441 L 56.6291 7.4441 C 56.6621 7.4181 56.9181 7.2041 56.9181 6.8401 C 56.9171 6.4781 56.6621 6.2661 56.6291 6.2401 L 56.6071 6.2401 L 47.4151 6.2401 L 47.3311 6.2401 C 47.2941 6.2691 47.0411 6.4671 47.0411 6.8101 C 47.0411 7.1891 47.3011 7.4201 47.3311 7.4441 " fill="#c15a2d"/>
<path transform="matrix(2.7777777,0,0,-2.7777777,0,196.85027)" d="M 52.2735 19.2148 L 52.3395 19.2258 C 53.3285 19.3378 54.1625 20.2068 54.2415 21.1978 L 54.2525 24.3398 L 49.8375 24.3398 L 49.8495 21.1938 C 49.9305 20.1848 50.7935 19.3118 51.8015 19.2178 L 51.8175 19.2148 C 51.8355 19.1888 52.0345 18.9618 52.0455 18.6008 C 52.0555 18.2358 51.7445 18.0398 51.6955 18.0168 L 51.6695 18.0198 C 50.1055 18.1678 48.7785 19.5118 48.6505 21.0778 C 48.6165 21.8308 48.6405 22.3848 48.6335 23.0488 C 48.6505 23.7538 48.5945 24.0598 48.6725 25.5448 L 52.0715 25.5448 L 53.4805 25.5448 L 54.1845 25.5448 L 54.8205 25.5448 L 55.1725 25.5448 L 55.3485 25.5448 C 55.4085 25.5458 55.4805 25.5598 55.4565 25.4768 L 55.4565 23.0248 C 55.4495 22.3718 55.4725 21.8248 55.4405 21.0838 C 55.3165 19.5448 54.0335 18.2088 52.4975 18.0318 L 52.3965 18.0168 C 52.3435 18.0418 52.0345 18.2258 52.0455 18.5688 C 52.0565 18.9488 52.2585 19.1908 52.2735 19.2148 " fill="#c15a2d"/>
<path transform="matrix(2.7777777,0,0,-2.7777777,0,196.85027)" d="M 50.69 42.7052 L 52.124 42.7052 L 52.983 42.7052 C 53.279 42.7032 53.557 42.7042 53.775 42.7242 C 54.716 42.8242 55.588 43.4272 56.008 44.2802 C 56.22 44.7102 56.327 45.1562 56.315 45.6672 L 56.315 47.3852 L 56.315 50.8202 L 56.315 54.2562 L 56.31 55.9562 C 56.292 56.4282 56.172 56.8992 55.926 57.3042 C 55.456 58.1262 54.552 58.6882 53.604 58.7212 L 50.199 58.7292 L 22.716 58.7292 L 19.28 58.7292 L 17.563 58.7292 C 17.017 58.7372 16.59 58.6702 16.148 58.4592 C 15.285 58.0682 14.648 57.2132 14.526 56.2752 C 14.468 55.8522 14.504 55.1932 14.494 54.6442 L 14.494 52.9262 L 14.494 46.0562 C 14.481 45.4382 14.498 45.0382 14.674 44.5732 C 14.833 44.1282 15.115 43.7292 15.47 43.4172 C 15.821 43.0982 16.261 42.8882 16.719 42.7782 C 16.955 42.7242 17.171 42.7062 17.438 42.7052 L 18.297 42.7052 L 45.707 42.7052 C 45.74 42.6792 45.997 42.4652 45.996 42.1012 C 45.995 41.7392 45.74 41.5272 45.707 41.5002 L 18.297 41.5002 L 17.438 41.5002 C 17.131 41.5002 16.774 41.5272 16.452 41.6042 C 15.799 41.7572 15.175 42.0622 14.675 42.5122 C 14.171 42.9552 13.773 43.5212 13.545 44.1552 C 13.293 44.7642 13.272 45.5332 13.289 46.0562 L 13.289 52.9272 L 13.289 54.6442 C 13.305 55.2392 13.252 55.7312 13.334 56.4452 C 13.511 57.7832 14.412 58.9932 15.639 59.5512 C 16.23 59.8482 16.966 59.9492 17.563 59.9332 L 19.28 59.9332 L 22.716 59.9332 L 50.199 59.9332 L 53.665 59.9242 C 55.014 59.8742 56.3 59.0772 56.967 57.9102 C 57.314 57.3332 57.491 56.6602 57.514 55.9912 L 57.52 54.2562 L 57.52 50.8202 L 57.52 47.3852 L 57.52 45.6672 C 57.537 45.0322 57.386 44.3302 57.083 43.7372 C 56.486 42.5272 55.251 41.6692 53.907 41.5272 C 53.555 41.4952 53.26 41.5002 52.983 41.5002 L 52.124 41.5002 L 50.69 41.5002 C 50.653 41.5302 50.4 41.7282 50.4 42.0702 C 50.4 42.4502 50.66 42.6812 50.69 42.7052 " fill="#c15a2d"/>
<path transform="matrix(2.7777777,0,0,-2.7777777,0,196.85027)" d="M 36.2783 54.3437 L 36.1933 54.3437 L 29.9423 54.3437 L 29.9203 54.3437 C 29.8873 54.3697 29.6313 54.5837 29.6323 54.9477 C 29.6323 55.3097 29.8873 55.5217 29.9203 55.5477 L 29.9423 55.5477 L 36.1933 55.5477 L 36.2783 55.5477 C 36.3153 55.5187 36.5683 55.3207 36.5683 54.9777 C 36.5683 54.5987 36.3083 54.3677 36.2783 54.3437 " fill="#c15a2d"/>
<path transform="matrix(2.7777777,0,0,-2.7777777,0,196.85027)" d="M 53.0753 54.3437 L 52.9913 54.3437 L 39.4643 54.3437 L 39.4423 54.3437 C 39.4093 54.3697 39.1523 54.5837 39.1533 54.9477 C 39.1543 55.3097 39.4093 55.5217 39.4423 55.5477 L 39.4643 55.5477 L 52.9913 55.5477 L 53.0753 55.5477 C 53.1123 55.5187 53.3653 55.3207 53.3653 54.9777 C 53.3653 54.5987 53.1053 54.3677 53.0753 54.3437 " fill="#c15a2d"/>
<path transform="matrix(2.7777777,0,0,-2.7777777,0,196.85027)" d="M 36.2783 50.3003 L 36.1933 50.3003 L 29.9423 50.3003 L 29.9203 50.3003 C 29.8873 50.3263 29.6313 50.5403 29.6323 50.9043 C 29.6323 51.2663 29.8873 51.4783 29.9203 51.5053 L 29.9423 51.5053 L 36.1933 51.5053 L 36.2783 51.5053 C 36.3153 51.4753 36.5683 51.2773 36.5683 50.9353 C 36.5683 50.5553 36.3083 50.3243 36.2783 50.3003 " fill="#c15a2d"/>
<path transform="matrix(2.7777777,0,0,-2.7777777,0,196.85027)" d="M 53.0753 50.3003 L 52.9913 50.3003 L 39.4643 50.3003 L 39.4423 50.3003 C 39.4093 50.3263 39.1523 50.5403 39.1533 50.9043 C 39.1543 51.2663 39.4093 51.4783 39.4423 51.5053 L 39.4643 51.5053 L 52.9913 51.5053 L 53.0753 51.5053 C 53.1123 51.4753 53.3653 51.2773 53.3653 50.9353 C 53.3653 50.5553 53.1053 50.3243 53.0753 50.3003 " fill="#c15a2d"/>
<path transform="matrix(2.7777777,0,0,-2.7777777,0,196.85027)" d="M 36.2783 46.2557 L 36.1933 46.2557 L 29.9423 46.2557 L 29.9203 46.2557 C 29.8873 46.2817 29.6313 46.4957 29.6323 46.8597 C 29.6323 47.2217 29.8873 47.4337 29.9203 47.4607 L 29.9423 47.4607 L 36.1933 47.4607 L 36.2783 47.4607 C 36.3153 47.4307 36.5683 47.2327 36.5683 46.8907 C 36.5683 46.5107 36.3083 46.2797 36.2783 46.2557 " fill="#c15a2d"/>
<path transform="matrix(2.7777777,0,0,-2.7777777,0,196.85027)" d="M 53.0753 46.2557 L 52.9913 46.2557 L 39.4643 46.2557 L 39.4423 46.2557 C 39.4093 46.2817 39.1523 46.4957 39.1533 46.8597 C 39.1543 47.2217 39.4093 47.4337 39.4423 47.4607 L 39.4643 47.4607 L 52.9913 47.4607 L 53.0753 47.4607 C 53.1123 47.4307 53.3653 47.2327 53.3653 46.8907 C 53.3653 46.5107 53.1053 46.2797 53.0753 46.2557 " fill="#c15a2d"/>
<path transform="matrix(2.7777777,0,0,-2.7777777,0,196.85027)" d="M 21.4574 47.286 L 21.4574 47.371 L 21.4554 55.546 L 21.4554 55.568 C 21.4814 55.6 21.6954 55.857 22.0584 55.856 C 22.4204 55.856 22.6334 55.601 22.6594 55.568 L 22.6594 55.546 L 22.6614 47.371 L 22.6614 47.286 C 22.6324 47.25 22.4344 46.996 22.0924 46.996 C 21.7124 46.996 21.4814 47.256 21.4574 47.286 " fill="#c15a2d"/>
<path transform="matrix(2.7777777,0,0,-2.7777777,0,196.85027)" d="M 20.5517 59.6222 L 20.5517 59.7062 L 20.5517 64.1122 L 20.5517 64.1342 C 20.5777 64.1672 20.7917 64.4232 21.1557 64.4222 C 21.5177 64.4222 21.7297 64.1672 21.7557 64.1342 L 21.7557 64.1122 L 21.7557 59.7062 L 21.7557 59.6222 C 21.7267 59.5852 21.5287 59.3322 21.1857 59.3322 C 20.8067 59.3322 20.5757 59.5922 20.5517 59.6222 " fill="#c15a2d"/>
<path transform="matrix(2.7777777,0,0,-2.7777777,0,196.85027)" d="M 49.0015 59.6222 L 49.0015 59.7062 L 49.0015 64.1122 L 49.0015 64.1342 C 49.0275 64.1672 49.2415 64.4232 49.6055 64.4222 C 49.9675 64.4222 50.1795 64.1672 50.2055 64.1342 L 50.2055 64.1122 L 50.2055 59.7062 L 50.2055 59.6222 C 50.1765 59.5852 49.9785 59.3322 49.6355 59.3322 C 49.2565 59.3322 49.0255 59.5922 49.0015 59.6222 " fill="#c15a2d"/>
<path transform="matrix(2.7777777,0,0,-2.7777777,0,196.85027)" d="M 22.0972 50.9609 L 22.0232 50.9199 L 18.0202 48.7069 L 18.0012 48.6959 C 17.9602 48.7029 17.6322 48.7659 17.4572 49.0849 C 17.2822 49.4019 17.4022 49.7109 17.4192 49.7499 L 17.4382 49.7609 L 21.4402 51.9739 L 21.5142 52.0149 C 21.5612 52.0069 21.8782 51.9559 22.0442 51.6569 C 22.2282 51.3239 22.1122 50.9969 22.0972 50.9609 " fill="#c15a2d"/>
<path transform="matrix(2.7777777,0,0,-2.7777777,0,196.85027)" d="M 22.1064 47.1518 L 22.0334 47.1098 L 19.9844 45.9408 L 19.9664 45.9298 C 19.9244 45.9358 19.5954 45.9948 19.4164 46.3108 C 19.2374 46.6258 19.3534 46.9358 19.3684 46.9758 L 19.3874 46.9868 L 21.4354 48.1558 L 21.5094 48.1978 C 21.5554 48.1908 21.8744 48.1438 22.0434 47.8468 C 22.2324 47.5168 22.1204 47.1878 22.1064 47.1518 " fill="#c15a2d"/>
<path transform="matrix(2.7777777,0,0,-2.7777777,0,196.85027)" d="M 22.6077 48.1978 L 22.6807 48.1558 L 24.7297 46.9868 L 24.7477 46.9758 C 24.7637 46.9368 24.8807 46.6238 24.6997 46.3078 C 24.5197 45.9938 24.1927 45.9368 24.1507 45.9298 L 24.1317 45.9408 L 22.0837 47.1098 L 22.0107 47.1518 C 21.9927 47.1958 21.8707 47.4928 22.0407 47.7908 C 22.2297 48.1208 22.5697 48.1918 22.6077 48.1978 " fill="#c15a2d"/>
<path transform="matrix(2.7777777,0,0,-2.7777777,0,196.85027)" d="M 22.6052 52.0149 L 22.6792 51.9739 L 26.6822 49.7609 L 26.7012 49.7499 C 26.7172 49.7109 26.8382 49.3999 26.6612 49.0819 C 26.4852 48.7659 26.1602 48.7029 26.1182 48.6959 L 26.0992 48.7069 L 22.0962 50.9199 L 22.0222 50.9609 C 22.0042 51.0049 21.8782 51.2999 22.0442 51.5999 C 22.2282 51.9329 22.5672 52.0079 22.6052 52.0149 " fill="#c15a2d"/>
</g>
</g>
</svg>
