<?xml version="1.0" encoding="UTF-8" standalone="no"?>
<!DOCTYPE svg PUBLIC "-//W3C//DTD SVG 1.1//EN" "http://www.w3.org/Graphics/SVG/1.1/DTD/svg11.dtd">
<svg xmlns="http://www.w3.org/2000/svg" xmlns:xlink="http://www.w3.org/1999/xlink" version="1.1" width="196.85027pt" height="196.85027pt" viewBox="0 0 196.85027 196.85027">
<g enable-background="new">
<clipPath id="cp0">
<path transform="matrix(2.7777777,0,0,-2.7777777,0,196.85027)" d="M 0 0 L 70.866 0 L 70.866 70.866 L 0 70.866 Z "/>
</clipPath>
<g clip-path="url(#cp0)">
<path transform="matrix(2.7777777,0,0,-2.7777777,113.675548,34.68582)" stroke-width="1.2" stroke-linecap="butt" stroke-miterlimit="10" stroke-linejoin="miter" fill="none" stroke="#c15a2d" d="M 0 0 C 0 -3.032 -2.458 -5.49 -5.49 -5.49 C -8.522 -5.49 -10.98 -3.032 -10.98 0 C -10.98 3.032 -8.522 5.49 -5.49 5.49 C -2.458 5.49 0 3.032 0 0 Z "/>
<path transform="matrix(2.7777777,0,0,-2.7777777,0,196.85027)" d="M 32.4297 6.2934 L 32.4297 6.3774 L 32.4297 21.2784 L 32.4297 21.3004 C 32.4557 21.3334 32.6697 21.5904 33.0337 21.5894 C 33.3957 21.5884 33.6077 21.3334 33.6337 21.3004 L 33.6337 21.2784 L 33.6337 6.3774 L 33.6337 6.2934 C 33.6047 6.2564 33.4067 6.0034 33.0637 6.0034 C 32.6847 6.0034 32.4537 6.2634 32.4297 6.2934 " fill="#c15a2d"/>
<path transform="matrix(2.7777777,0,0,-2.7777777,0,196.85027)" d="M 38.3065 6.2934 L 38.3065 6.3774 L 38.3065 21.2784 L 38.3065 21.3004 C 38.3325 21.3334 38.5465 21.5904 38.9105 21.5894 C 39.2725 21.5884 39.4845 21.3334 39.5105 21.3004 L 39.5105 21.2784 L 39.5105 6.3774 L 39.5105 6.2934 C 39.4815 6.2564 39.2835 6.0034 38.9405 6.0034 C 38.5615 6.0034 38.3305 6.2634 38.3065 6.2934 " fill="#c15a2d"/>
<path transform="matrix(2.7777777,0,0,-2.7777777,0,196.85027)" d="M 27.209 32.3436 L 27.147 32.4006 L 22.684 36.4736 C 22.662 36.4966 22.63 36.5156 22.616 36.5416 L 22.644 36.6356 L 22.7 36.8246 L 22.811 37.2016 L 22.931 37.6076 L 23.154 38.3616 L 23.599 39.8706 L 24.49 42.8896 L 26.394 49.3436 C 27.503 49.3986 27.73 49.3586 28.248 49.3716 L 29.657 49.3716 L 32.476 49.3716 L 32.498 49.3716 C 32.53 49.3446 32.787 49.1316 32.786 48.7676 C 32.786 48.4056 32.531 48.1936 32.498 48.1666 L 32.476 48.1666 L 27.303 48.1666 L 23.983 36.9176 L 27.959 33.2906 L 28.021 33.2336 C 28.028 33.1866 28.082 32.8696 27.851 32.6166 C 27.595 32.3356 27.248 32.3416 27.209 32.3436 " fill="#c15a2d"/>
<path transform="matrix(2.7777777,0,0,-2.7777777,0,196.85027)" d="M 42.8452 33.2333 L 42.9072 33.2903 L 46.8832 36.9183 L 43.5632 48.1673 L 38.3902 48.1673 L 38.3682 48.1673 C 38.3352 48.1933 38.0792 48.4073 38.0802 48.7703 C 38.0802 49.1323 38.3352 49.3443 38.3682 49.3713 L 38.3902 49.3713 L 41.2092 49.3713 L 42.6182 49.3713 C 43.1362 49.3593 43.3632 49.3993 44.4722 49.3433 L 46.3762 42.8893 L 47.2672 39.8713 L 47.7122 38.3623 L 47.9352 37.6073 L 48.0552 37.2013 L 48.1662 36.8243 L 48.2222 36.6353 L 48.2502 36.5413 C 48.2362 36.5163 48.2042 36.4963 48.1822 36.4733 L 43.7192 32.4003 L 43.6572 32.3433 C 43.6102 32.3403 43.2892 32.3163 43.0582 32.5693 C 42.8022 32.8493 42.8392 33.1953 42.8452 33.2333 " fill="#c15a2d"/>
<path transform="matrix(2.7777777,0,0,-2.7777777,0,196.85027)" d="M 42.2212 30.2216 L 42.2212 41.7486 L 28.4312 41.7486 L 28.4312 30.5336 L 42.5352 30.5336 C 42.5672 30.5076 42.8242 30.2936 42.8232 29.9296 C 42.8232 29.5676 42.5682 29.3556 42.5352 29.3296 L 35.1762 29.3296 L 31.4842 29.3296 L 29.6382 29.3296 L 28.7152 29.3296 L 28.0752 29.3296 L 27.6132 29.3296 L 27.3822 29.3296 C 27.3162 29.3396 27.1922 29.2926 27.2272 29.4046 L 27.2272 36.1946 L 27.2272 39.3076 L 27.2272 40.8636 L 27.2272 41.6416 L 27.2272 42.3136 L 27.2272 42.7026 C 27.2332 42.8256 27.1802 43.0086 27.3662 42.9536 L 35.4152 42.9536 L 39.1732 42.9536 L 41.0522 42.9536 L 41.9912 42.9536 L 42.7012 42.9536 L 43.1712 42.9536 L 43.4062 42.9536 C 43.4452 42.9136 43.4172 42.8076 43.4252 42.7376 L 43.4252 30.2216 C 43.3962 30.1846 43.1982 29.9316 42.8552 29.9316 C 42.4762 29.9316 42.2452 30.1916 42.2212 30.2216 " fill="#c15a2d"/>
</g>
</g>
</svg>
