<?xml version="1.0" encoding="UTF-8" standalone="no"?>
<!DOCTYPE svg PUBLIC "-//W3C//DTD SVG 1.1//EN" "http://www.w3.org/Graphics/SVG/1.1/DTD/svg11.dtd">
<svg xmlns="http://www.w3.org/2000/svg" xmlns:xlink="http://www.w3.org/1999/xlink" version="1.1" width="196.84972pt" height="196.84694pt" viewBox="0 0 196.84972 196.84694">
<g enable-background="new">
<clipPath id="cp0">
<path transform="matrix(2.7777777,0,0,-2.7777777,0,196.84694)" d="M 0 0 L 70.8659 0 L 70.8659 70.8649 L 0 70.8649 Z "/>
</clipPath>
<g clip-path="url(#cp0)">
<path transform="matrix(2.7777777,0,0,-2.7777777,0,196.84694)" d="M 28.8043 15.7129 L 29.1583 15.3629 C 29.3273 15.1879 29.5143 15.0319 29.6943 14.8689 C 30.0483 14.5359 30.4333 14.2399 30.8093 13.9319 C 31.5833 13.3469 32.3863 12.7969 33.2323 12.3189 C 34.9233 11.3669 36.7453 10.6399 38.6383 10.2079 C 40.5263 9.7639 42.4853 9.5859 44.4213 9.7279 C 45.3963 9.7309 46.3493 9.9399 47.3113 10.0719 C 48.2473 10.3229 49.2113 10.4909 50.1093 10.8669 C 51.9513 11.4839 53.6693 12.4389 55.2403 13.5719 C 56.8353 14.6839 58.2083 16.0909 59.4033 17.6149 C 61.7993 20.6759 63.2413 24.4499 63.5753 28.3159 C 63.7493 30.2539 63.5923 32.2039 63.2563 34.1149 C 62.8253 36.0069 62.2053 37.8599 61.2933 39.5779 C 60.3523 41.2739 59.2353 42.8819 57.8703 44.2679 C 56.4903 45.6299 54.9713 46.8669 53.2683 47.8069 C 49.8803 49.7089 45.9533 50.6099 42.0703 50.3919 C 38.2123 50.1919 34.3403 48.7729 31.3063 46.5389 C 31.2653 46.5419 30.9353 46.5679 30.7163 46.8589 C 30.4993 47.1479 30.5853 47.4709 30.5973 47.5129 C 33.8093 49.8779 37.9153 51.3829 42.0003 51.5939 C 46.1063 51.8269 50.2723 50.8719 53.8593 48.8559 C 55.6633 47.8599 57.2733 46.5519 58.7323 45.1089 C 60.1783 43.6409 61.3623 41.9389 62.3573 40.1429 C 63.3233 38.3219 63.9833 36.3589 64.4363 34.3539 C 64.7963 32.3289 64.9583 30.2659 64.7753 28.2139 C 64.4233 24.1209 62.8923 20.1199 60.3573 16.8779 C 59.0923 15.2639 57.6363 13.7769 55.9493 12.5979 C 54.2843 11.3979 52.4643 10.3879 50.5133 9.7319 C 49.5603 9.3369 48.5403 9.1529 47.5483 8.8909 C 46.5303 8.7479 45.5193 8.5319 44.4883 8.5249 C 42.4383 8.3769 40.3653 8.5649 38.3643 9.0349 C 36.3593 9.4939 34.4283 10.2629 32.6373 11.2719 C 31.7413 11.7779 30.8913 12.3599 30.0713 12.9799 C 29.6733 13.3059 29.2663 13.6199 28.8903 13.9709 C 28.7003 14.1449 28.5033 14.3099 28.3243 14.4939 L 27.9483 14.8649 C 27.9423 14.9129 27.8993 15.2339 28.1463 15.4709 C 28.4213 15.7329 28.7663 15.7159 28.8043 15.7129 " fill="#c15a2d"/>
<path transform="matrix(2.7777777,0,0,-2.7777777,0,196.84694)" d="M 29.8394 29.3946 L 29.8844 28.5076 C 29.8834 28.1636 29.9714 27.8286 30.0124 27.4896 C 30.0844 26.8066 30.2994 26.1526 30.4604 25.4876 C 30.8894 24.1866 31.4884 22.9476 32.2404 21.8026 C 33.0234 20.6776 33.9604 19.6656 35.0104 18.7866 C 36.0764 17.9246 37.2714 17.2356 38.5284 16.6956 C 39.7964 16.1726 41.1414 15.8716 42.5004 15.7106 C 43.8664 15.6006 45.2434 15.6616 46.5904 15.9126 C 47.9264 16.2046 49.2324 16.6456 50.4444 17.2876 C 51.6424 17.9496 52.7574 18.7596 53.7394 19.7176 C 54.6974 20.6966 55.5244 21.7986 56.1964 22.9926 C 56.8314 24.2066 57.2994 25.5006 57.5994 26.8376 C 57.8404 28.1846 57.9444 29.5596 57.8224 30.9266 C 57.6714 32.2846 57.3974 33.6386 56.8674 34.9046 C 55.8474 37.4476 54.0574 39.6636 51.8074 41.2266 C 50.6684 41.9856 49.4394 42.6106 48.1354 43.0326 C 46.8404 43.4196 45.4334 43.6806 44.1324 43.6886 C 44.1024 43.7166 43.8574 43.9436 43.8554 44.3066 C 43.8544 44.6686 44.1194 44.8686 44.1554 44.8936 C 45.5664 44.8836 47.0964 44.6026 48.5024 44.1806 C 49.9194 43.7216 51.2554 43.0436 52.4914 42.2186 C 53.7174 41.3736 54.7974 40.3356 55.7424 39.1896 C 56.6834 38.0356 57.4094 36.7216 57.9844 35.3536 C 58.5594 33.9786 58.8604 32.5076 59.0224 31.0326 C 59.1544 29.5496 59.0444 28.0586 58.7794 26.5956 C 58.4564 25.1426 57.9464 23.7366 57.2554 22.4176 C 56.5264 21.1206 55.6294 19.9246 54.5874 18.8626 C 53.5224 17.8226 52.3124 16.9426 51.0104 16.2246 C 49.6954 15.5266 48.2764 15.0456 46.8234 14.7316 C 45.3604 14.4566 43.8674 14.3906 42.3854 14.5116 C 40.9094 14.6836 39.4474 15.0136 38.0704 15.5816 C 36.7044 16.1666 35.4074 16.9166 34.2504 17.8526 C 33.1094 18.8056 32.0934 19.9036 31.2434 21.1256 C 30.4254 22.3686 29.7744 23.7146 29.3104 25.1296 C 29.1314 25.8506 28.9034 26.5616 28.8224 27.3036 C 28.7764 27.6716 28.6854 28.0356 28.6834 28.4086 L 28.6354 29.3706 C 28.6624 29.4106 28.8474 29.6746 29.1904 29.6726 C 29.5704 29.6706 29.8134 29.4216 29.8394 29.3946 " fill="#c15a2d"/>
<path transform="matrix(2.7777777,0,0,-2.7777777,0,196.84694)" d="M 43.8846 57.4953 L 43.8846 57.4103 L 43.8846 50.6933 L 43.8846 50.6713 C 43.8586 50.6383 43.6446 50.3823 43.2806 50.3823 C 42.9186 50.3833 42.7066 50.6383 42.6806 50.6713 L 42.6806 50.6933 L 42.6806 57.4103 L 42.6806 57.4953 C 42.7096 57.5323 42.9076 57.7853 43.2506 57.7853 C 43.6296 57.7853 43.8606 57.5253 43.8846 57.4953 " fill="#c15a2d"/>
<path transform="matrix(2.7777777,0,0,-2.7777777,0,196.84694)" d="M 31.1948 35.0897 L 31.2738 35.0607 L 40.1128 31.8797 L 40.1328 31.8717 C 40.1548 31.8357 40.3238 31.5477 40.1998 31.2067 C 40.0768 30.8657 39.7658 30.7527 39.7248 30.7387 L 39.7048 30.7457 L 30.8668 33.9277 L 30.7868 33.9567 C 30.7618 33.9967 30.5908 34.2687 30.7068 34.5907 C 30.8358 34.9487 31.1578 35.0767 31.1948 35.0897 " fill="#c15a2d"/>
<path transform="matrix(2.7777777,0,0,-2.7777777,0,196.84694)" d="M 6.8905 45.7379 L 6.9745 45.7379 L 25.8795 45.7379 L 25.9015 45.7379 C 25.9345 45.7119 26.1915 45.4979 26.1905 45.1339 C 26.1895 44.7719 25.9345 44.5599 25.9015 44.5339 L 25.8795 44.5339 L 6.9745 44.5339 L 6.8905 44.5339 C 6.8535 44.5629 6.6005 44.7609 6.6005 45.1039 C 6.6005 45.4829 6.8605 45.7139 6.8905 45.7379 " fill="#c15a2d"/>
<path transform="matrix(2.7777777,0,0,-2.7777777,0,196.84694)" d="M 11.6533 39.2005 L 11.7383 39.2005 L 24.4333 39.2005 L 24.4553 39.2005 C 24.4883 39.1745 24.7443 38.9605 24.7443 38.5965 C 24.7433 38.2345 24.4883 38.0225 24.4553 37.9965 L 24.4333 37.9965 L 11.7383 37.9965 L 11.6533 37.9965 C 11.6163 38.0255 11.3633 38.2235 11.3633 38.5665 C 11.3633 38.9455 11.6233 39.1765 11.6533 39.2005 " fill="#c15a2d"/>
<path transform="matrix(2.7777777,0,0,-2.7777777,0,196.84694)" d="M 7.8343 32.9915 L 7.9183 32.9915 L 23.8863 32.9915 L 23.9083 32.9915 C 23.9403 32.9655 24.1973 32.7515 24.1963 32.3875 C 24.1963 32.0255 23.9413 31.8135 23.9083 31.7865 L 23.8863 31.7865 L 7.9183 31.7865 L 7.8343 31.7865 C 7.7973 31.8165 7.5443 32.0145 7.5443 32.3565 C 7.5443 32.7365 7.8043 32.9675 7.8343 32.9915 " fill="#c15a2d"/>
<path transform="matrix(2.7777777,0,0,-2.7777777,0,196.84694)" d="M 13.055 26.0185 L 13.14 26.0185 L 23.886 26.0185 L 23.908 26.0185 C 23.941 25.9925 24.197 25.7785 24.197 25.4145 C 24.196 25.0525 23.941 24.8405 23.908 24.8135 L 23.886 24.8135 L 13.14 24.8135 L 13.055 24.8135 C 13.018 24.8435 12.765 25.0415 12.765 25.3835 C 12.765 25.7635 13.025 25.9945 13.055 26.0185 " fill="#c15a2d"/>
<path transform="matrix(2.7777777,0,0,-2.7777777,0,196.84694)" d="M 6.8905 18.5036 L 6.9745 18.5036 L 25.2235 18.5036 L 25.2455 18.5036 C 25.2775 18.4776 25.5345 18.2636 25.5335 17.8996 C 25.5335 17.5376 25.2785 17.3256 25.2455 17.2986 L 25.2235 17.2986 L 6.9745 17.2986 L 6.8905 17.2986 C 6.8535 17.3286 6.6005 17.5266 6.6005 17.8686 C 6.6005 18.2486 6.8605 18.4796 6.8905 18.5036 " fill="#c15a2d"/>
<path transform="matrix(2.7777777,0,0,-2.7777777,0,196.84694)" d="M 48.6479 28.8069 L 48.7269 28.7779 L 51.5509 27.7619 L 51.5719 27.7549 C 51.5929 27.7189 51.7619 27.4309 51.6389 27.0889 C 51.5149 26.7489 51.2039 26.6349 51.1639 26.6209 L 51.1429 26.6289 L 48.3199 27.6449 L 48.2399 27.6739 C 48.2149 27.7139 48.0439 27.9859 48.1599 28.3079 C 48.2889 28.6659 48.6109 28.7939 48.6479 28.8069 " fill="#c15a2d"/>
<path transform="matrix(2.7777777,0,0,-2.7777777,0,196.84694)" d="M 35.305 54.7129 L 35.305 54.7979 L 35.305 56.3099 C 35.311 56.8409 35.353 57.4259 35.51 57.9609 C 35.789 59.0479 36.402 60.0439 37.223 60.8019 C 38.039 61.5689 39.083 62.0909 40.186 62.2969 C 41.347 62.4769 42.293 62.3699 43.315 62.3999 C 44.33 62.3699 45.291 62.4799 46.45 62.2859 C 47.551 62.0619 48.585 61.5289 49.395 60.7529 C 50.205 59.9829 50.805 58.9829 51.073 57.8909 C 51.221 57.3579 51.262 56.7629 51.26 56.2459 L 51.26 54.7329 L 51.26 54.7109 C 51.233 54.6789 51.02 54.4219 50.656 54.4229 C 50.294 54.4239 50.082 54.6779 50.055 54.7109 L 50.055 54.7329 L 50.055 56.2459 C 50.055 56.7359 50.025 57.1549 49.905 57.5959 C 49.694 58.4639 49.213 59.2639 48.565 59.8799 C 47.917 60.5019 47.091 60.9239 46.216 61.1039 C 45.382 61.2569 44.311 61.1729 43.315 61.1959 C 42.324 61.1729 41.239 61.2549 40.405 61.1119 C 39.529 60.9479 38.695 60.5339 38.042 59.9189 C 37.385 59.3129 36.894 58.5159 36.674 57.6509 C 36.546 57.2149 36.518 56.7849 36.509 56.3099 L 36.509 54.7979 L 36.509 54.7129 C 36.48 54.6759 36.282 54.4229 35.939 54.4229 C 35.56 54.4229 35.329 54.6829 35.305 54.7129 " fill="#c15a2d"/>
<path transform="matrix(2.7777777,0,0,-2.7777777,0,196.84694)" d="M 39.9392 30.98 L 39.9212 30.909 C 39.6962 29.902 39.8832 28.814 40.4292 27.937 C 40.9672 27.055 41.8552 26.403 42.8582 26.151 C 43.8562 25.888 44.9492 26.036 45.8452 26.55 C 46.7462 27.057 47.4302 27.92 47.7202 28.913 C 48.0212 29.903 47.9072 31.001 47.4272 31.916 C 46.9512 32.834 46.1122 33.551 45.1292 33.87 C 44.1492 34.2 43.0512 34.132 42.1202 33.683 C 41.1872 33.242 40.4402 32.426 40.0862 31.462 C 40.0532 31.447 39.7722 31.301 39.4222 31.402 C 39.0742 31.501 38.9682 31.836 38.9572 31.883 C 39.4172 33.135 40.3912 34.199 41.6012 34.769 C 42.8062 35.353 44.2422 35.441 45.5102 35.012 C 46.7842 34.599 47.8802 33.663 48.4942 32.473 C 49.1182 31.29 49.2652 29.855 48.8752 28.573 C 48.5012 27.287 47.6082 26.159 46.4412 25.503 C 45.2802 24.836 43.8542 24.643 42.5582 24.985 C 41.2612 25.309 40.1002 26.161 39.4032 27.305 C 38.6962 28.441 38.4522 29.858 38.7442 31.167 L 38.7672 31.259 C 38.8072 31.296 39.0672 31.516 39.3932 31.411 C 39.7542 31.293 39.9212 31.007 39.9392 30.98 " fill="#c15a2d"/>
<path transform="matrix(2.7777777,0,0,-2.7777777,0,196.84694)" d="M 63.606 46.9317 L 63.561 46.9987 C 62.244 48.8877 60.435 50.4197 58.439 51.6367 L 58.421 51.6477 C 58.408 51.6867 58.304 52.0007 58.489 52.3137 C 58.674 52.6247 59.005 52.6707 59.049 52.6757 L 59.068 52.6637 C 61.165 51.3847 63.11 49.7507 64.549 47.6867 L 64.599 47.6137 C 64.597 47.5647 64.58 47.2367 64.293 47.0507 C 63.974 46.8437 63.642 46.9227 63.606 46.9317 " fill="#c15a2d"/>
</g>
</g>
</svg>
