<?xml version="1.0" encoding="UTF-8" standalone="no"?>
<!DOCTYPE svg PUBLIC "-//W3C//DTD SVG 1.1//EN" "http://www.w3.org/Graphics/SVG/1.1/DTD/svg11.dtd">
<svg xmlns="http://www.w3.org/2000/svg" xmlns:xlink="http://www.w3.org/1999/xlink" version="1.1" width="196.85027pt" height="196.85027pt" viewBox="0 0 196.85027 196.85027">
<g enable-background="new">
<clipPath id="cp0">
<path transform="matrix(2.7777777,0,0,-2.7777777,0,196.85027)" d="M 0 0 L 70.866 0 L 70.866 70.866 L 0 70.866 Z "/>
</clipPath>
<g clip-path="url(#cp0)">
<path transform="matrix(2.7777777,0,0,-2.7777777,141.18999,51.40527)" stroke-width="1" stroke-linecap="butt" stroke-miterlimit="10" stroke-linejoin="miter" fill="none" stroke="#c15a2d" d="M 0 0 L -1.351 0 L -1.351 -4.151 L -.372 -4.151 C .463 -4.151 1.126 -3.985 1.616 -3.652 C 2.105 -3.319 2.35 -2.781 2.35 -2.037 C 2.35 -.68 1.566 0 0 0 Z M .157 2.428 C 1.958 2.428 3.273 2.039 4.103 1.263 C 4.931 .485 5.346 -.581 5.346 -1.939 C 5.346 -2.762 5.176 -3.525 4.837 -4.23 C 4.497 -4.935 3.933 -5.503 3.143 -5.934 C 2.353 -6.364 1.279 -6.58 -.078 -6.58 L -1.351 -6.58 L -1.351 -11.554 L -4.308 -11.554 L -4.308 2.428 L .157 2.428 Z "/>
<path transform="matrix(2.7777777,0,0,-2.7777777,0,196.85027)" d="M 60.7529 56.2298 L 60.5009 56.5518 L 60.1239 56.9838 C 59.8719 57.2718 59.5979 57.5398 59.3209 57.8028 C 58.7669 58.3318 58.1509 58.7908 57.5149 59.2128 C 56.2319 60.0458 54.8019 60.6518 53.3109 60.9878 C 50.3309 61.6568 47.0999 61.2718 44.3949 59.8388 C 41.6819 58.4248 39.4939 56.0348 38.3269 53.2058 C 37.1529 50.3758 37.0659 47.1328 37.9859 44.2218 C 38.9149 41.3018 40.9419 38.7648 43.5369 37.1538 C 44.8349 36.3458 46.2729 35.7658 47.7709 35.4498 C 49.2719 35.1528 50.8239 35.1208 52.3349 35.3398 C 55.3659 35.7628 58.2199 37.3198 60.2229 39.6378 C 62.2369 41.9158 63.4409 44.9898 63.4649 47.9728 C 63.4929 48.0028 63.7199 48.2468 64.0829 48.2488 C 64.4449 48.2498 64.6449 47.9838 64.6699 47.9478 C 64.6429 44.6928 63.3279 41.3278 61.1279 38.8428 C 58.9419 36.3148 55.8229 34.6118 52.5109 34.1478 C 50.8599 33.9078 49.1689 33.9448 47.5279 34.2698 C 45.8919 34.6148 44.3189 35.2478 42.9019 36.1308 C 40.0669 37.8908 37.8559 40.6588 36.8409 43.8508 C 35.8319 47.0338 35.9299 50.5678 37.2129 53.6638 C 38.4879 56.7558 40.8739 59.3628 43.8389 60.9068 C 46.7979 62.4728 50.3219 62.8948 53.5769 62.1618 C 55.2069 61.7958 56.7699 61.1338 58.1699 60.2238 C 58.8659 59.7628 59.5379 59.2608 60.1429 58.6838 C 60.4449 58.3968 60.7439 58.1038 61.0189 57.7898 L 61.4299 57.3178 L 61.7059 56.9668 C 61.7069 56.9168 61.7109 56.5908 61.4349 56.3888 C 61.1279 56.1648 60.7889 56.2228 60.7529 56.2298 " fill="#c15a2d"/>
<path transform="matrix(2.7777777,0,0,-2.7777777,0,196.85027)" d="M 57.9163 32.7264 L 57.9523 32.6044 C 57.9853 32.4834 58.0303 32.3584 58.0783 32.2324 C 58.1723 31.9814 58.2873 31.7264 58.4063 31.4724 C 58.6493 30.9634 58.9243 30.4584 59.2063 29.9484 L 59.6333 29.1714 L 59.8473 28.7454 C 59.8803 28.6674 59.9263 28.5824 59.9603 28.4414 C 59.9913 28.3144 60.0123 28.1134 60.0023 28.0734 L 60.0023 26.3164 L 60.0023 19.2864 C 59.9753 18.6874 60.0673 18.1714 59.9183 17.3984 C 59.7613 16.6884 59.3353 16.0504 58.7643 15.6104 C 58.2033 15.1614 57.4383 14.9384 56.7583 14.9564 L 55.0003 14.9564 L 47.9713 14.9564 L 19.8533 14.9564 L 12.8243 14.9564 L 11.9453 14.9564 C 11.6263 14.9544 11.2333 14.9954 10.8963 15.1074 C 10.2033 15.3254 9.6003 15.7944 9.2073 16.4014 C 9.0103 16.7054 8.8623 17.0434 8.7843 17.3974 C 8.6993 17.7504 8.6973 18.1354 8.7023 18.4004 L 8.7083 20.1664 L 8.7333 27.2284 C 8.7483 27.8224 8.6973 28.3814 8.8133 29.0444 C 8.9163 29.6804 9.1143 30.2964 9.3813 30.8724 C 9.9163 32.0254 10.7073 33.0124 11.5893 33.8624 C 12.0713 34.3034 12.3973 34.6024 12.7523 35.0654 C 13.0963 35.4984 13.4163 35.9684 13.7013 36.4454 C 13.8343 36.6674 13.9963 36.9644 14.0463 37.1034 L 14.3213 37.9204 L 14.8823 39.5924 L 16.0063 42.9354 C 16.2023 43.4884 16.3473 44.0434 16.6423 44.6624 C 16.9293 45.2554 17.3373 45.7994 17.8333 46.2424 C 18.8223 47.1074 20.1573 47.6254 21.4433 47.5754 L 24.9723 47.5924 L 31.9313 47.5454 C 31.9643 47.5194 32.2183 47.3024 32.2133 46.9394 C 32.2093 46.5774 31.9523 46.3674 31.9193 46.3414 L 24.9693 46.3884 L 21.4693 46.3714 C 20.4023 46.4204 19.4083 46.0014 18.6323 45.3414 C 18.2553 45.0024 17.9473 44.5934 17.7233 44.1324 C 17.5103 43.6954 17.3433 43.1134 17.1513 42.5624 L 16.0353 39.2434 L 15.4773 37.5834 L 15.1923 36.7334 C 15.0383 36.3244 14.8973 36.1144 14.7373 35.8304 C 14.4213 35.3024 14.0803 34.8014 13.6963 34.3164 C 13.5043 34.0744 13.3013 33.8374 13.0763 33.6074 C 12.8393 33.3634 12.6163 33.1854 12.4233 32.9934 C 11.6213 32.2214 10.9263 31.3434 10.4743 30.3664 C 10.2483 29.8794 10.0863 29.3684 10.0013 28.8484 C 9.9083 28.3534 9.9473 27.7334 9.9353 27.1584 L 9.9123 20.1614 L 9.9063 18.4124 C 9.9023 18.0934 9.9063 17.8884 9.9573 17.6694 C 10.0043 17.4504 10.0973 17.2434 10.2183 17.0564 C 10.4623 16.6814 10.8363 16.3884 11.2623 16.2544 C 11.4843 16.1864 11.6803 16.1624 11.9453 16.1614 L 12.8243 16.1614 L 19.8533 16.1614 L 47.9713 16.1614 L 55.0003 16.1614 L 56.7583 16.1614 C 57.2473 16.1534 57.6683 16.2864 58.0303 16.5654 C 58.3843 16.8394 58.6503 17.2334 58.7443 17.6704 C 58.8363 18.0494 58.7823 18.7184 58.7973 19.2864 L 58.7973 26.3164 L 58.7973 28.0734 L 58.7973 28.1394 L 58.7523 28.2444 L 58.5713 28.6034 L 58.1513 29.3654 C 57.8673 29.8814 57.5813 30.4054 57.3193 30.9534 C 57.1893 31.2304 57.0623 31.5094 56.9513 31.8074 C 56.8953 31.9554 56.8413 32.1054 56.7963 32.2674 L 56.7493 32.4284 C 56.7673 32.4834 56.9003 32.8134 57.2413 32.8564 C 57.6193 32.9034 57.8903 32.7384 57.9163 32.7264 " fill="#c15a2d"/>
<path transform="matrix(2.7777777,0,0,-2.7777777,0,196.85027)" d="M 37.5156 33.9778 L 37.4316 33.9778 L 27.5216 33.9778 L 22.5666 33.9778 L 21.3276 33.9778 L 20.6416 33.9778 C 20.4026 34.0238 20.3286 34.0638 20.2216 34.0948 L 19.9076 34.2068 C 19.0746 34.5208 18.2976 34.9708 17.6036 35.5038 L 17.5856 35.5188 C 17.5716 35.5598 17.4946 35.8968 17.7276 36.1758 C 17.9596 36.4538 18.2796 36.4678 18.3206 36.4728 L 18.3366 36.4598 C 18.9506 35.9878 19.6196 35.6028 20.3336 35.3338 L 20.6026 35.2378 L 20.7756 35.1818 L 21.3276 35.1818 L 22.5666 35.1818 L 27.5216 35.1818 L 37.4316 35.1818 L 37.5156 35.1818 C 37.5526 35.1528 37.8056 34.9548 37.8056 34.6118 C 37.8056 34.2328 37.5456 34.0018 37.5156 33.9778 " fill="#c15a2d"/>
<path transform="matrix(2.7777777,0,0,-2.7777777,0,196.85027)" d="M 43.7635 20.3592 L 43.6795 20.3592 L 25.2825 20.3592 L 25.2605 20.3592 C 25.2275 20.3852 24.9715 20.5992 24.9715 20.9632 C 24.9725 21.3252 25.2275 21.5372 25.2605 21.5642 L 25.2825 21.5642 L 43.6795 21.5642 L 43.7635 21.5642 C 43.8005 21.5342 44.0535 21.3362 44.0535 20.9942 C 44.0535 20.6142 43.7935 20.3832 43.7635 20.3592 " fill="#c15a2d"/>
<path transform="matrix(2.7777777,0,0,-2.7777777,0,196.85027)" d="M 14.9965 28.7778 L 15.0595 28.7288 C 16.0905 27.9468 17.2025 27.3148 18.4665 27.4838 L 22.5925 27.4838 L 22.6135 27.4838 C 22.6465 27.4578 22.9035 27.2438 22.9025 26.8798 C 22.9015 26.5178 22.6475 26.3058 22.6135 26.2788 L 22.5925 26.2788 L 18.4665 26.2788 L 17.9505 26.2788 L 17.6925 26.2788 C 17.6595 26.2688 17.3805 26.2888 17.3295 26.3098 C 16.9435 26.3768 16.5735 26.4948 16.2215 26.6378 C 15.5155 26.9278 14.8885 27.3338 14.3155 27.7808 L 14.2455 27.8358 C 14.2315 27.8838 14.1535 28.2058 14.3755 28.4658 C 14.6225 28.7548 14.9595 28.7748 14.9965 28.7778 " fill="#c15a2d"/>
<path transform="matrix(2.7777777,0,0,-2.7777777,0,196.85027)" d="M 54.8175 27.8362 L 54.7475 27.7812 C 54.1745 27.3332 53.5475 26.9282 52.8415 26.6382 C 52.4895 26.4952 52.1195 26.3772 51.7325 26.3102 C 51.6825 26.2882 51.4035 26.2692 51.3705 26.2792 L 51.1125 26.2792 L 50.5965 26.2792 L 46.4705 26.2792 L 46.4485 26.2792 C 46.4165 26.3052 46.1595 26.5192 46.1605 26.8832 C 46.1605 27.2452 46.4155 27.4572 46.4485 27.4842 L 46.4705 27.4842 L 50.5965 27.4842 C 51.8605 27.3152 52.9725 27.9472 54.0035 28.7292 L 54.0665 28.7782 C 54.1115 28.7752 54.4225 28.7762 54.6455 28.5152 C 54.8925 28.2272 54.8295 27.8752 54.8175 27.8362 " fill="#c15a2d"/>
<path transform="matrix(2.7777777,0,0,-2.7777777,0,196.85027)" d="M 16.5201 14.9566 L 16.4351 14.9566 L 12.1821 14.9566 L 12.1821 12.8686 L 12.1821 11.4896 L 12.1861 10.8266 C 12.1931 10.6676 12.2271 10.5116 12.2881 10.3656 C 12.4121 10.0746 12.6451 9.8296 12.9291 9.6896 C 13.2181 9.5346 13.4931 9.5466 14.0101 9.5516 L 16.7691 9.5516 L 19.5281 9.5516 C 19.7431 9.5536 20.0241 9.5466 20.1831 9.5566 C 20.3421 9.5656 20.4971 9.6026 20.6421 9.6656 C 20.9331 9.7896 21.1731 10.0306 21.3081 10.3156 C 21.3761 10.4576 21.4171 10.6116 21.4321 10.7696 C 21.4441 10.8966 21.4351 11.2006 21.4381 11.4076 L 21.4381 12.7876 L 21.4381 14.9566 L 17.0991 14.9566 C 17.0661 14.9826 16.8101 15.1966 16.8101 15.5606 C 16.8111 15.9226 17.0661 16.1346 17.0991 16.1606 L 19.5731 16.1606 L 20.8131 16.1606 L 21.4331 16.1606 C 21.8251 16.1496 22.2821 16.1866 22.6431 16.1356 L 22.6431 12.7876 L 22.6431 11.4076 C 22.6381 11.1546 22.6531 10.9996 22.6321 10.6666 C 22.6051 10.3666 22.5251 10.0706 22.3961 9.7976 C 22.1381 9.2536 21.6831 8.8036 21.1281 8.5636 C 20.8521 8.4426 20.5531 8.3716 20.2531 8.3536 C 19.9531 8.3396 19.7741 8.3496 19.5281 8.3466 L 16.7691 8.3466 L 14.0101 8.3466 C 13.7641 8.3506 13.5941 8.3366 13.2611 8.3596 C 12.9611 8.3916 12.6661 8.4756 12.3961 8.6096 C 11.8541 8.8756 11.4151 9.3386 11.1791 9.8946 C 11.0611 10.1726 10.9951 10.4726 10.9831 10.7726 L 10.9781 11.4896 L 10.9781 12.8686 L 10.9781 14.2486 L 10.9781 14.9376 L 10.9781 15.6096 L 10.9781 15.9536 L 10.9781 16.1266 C 10.9661 16.1956 11.0731 16.1456 11.1161 16.1606 L 16.4351 16.1606 L 16.5201 16.1606 C 16.5571 16.1316 16.8101 15.9336 16.8101 15.5906 C 16.8101 15.2116 16.5501 14.9806 16.5201 14.9566 " fill="#c15a2d"/>
<path transform="matrix(2.7777777,0,0,-2.7777777,0,196.85027)" d="M 51.3743 14.9566 L 51.2903 14.9566 L 47.5293 14.9566 L 47.5293 12.8696 L 47.5293 11.4906 L 47.5333 10.8266 C 47.5403 10.6676 47.5743 10.5116 47.6343 10.3656 C 47.7583 10.0756 47.9913 9.8296 48.2753 9.6906 C 48.5653 9.5346 48.8383 9.5466 49.3563 9.5516 L 52.1153 9.5516 L 54.8743 9.5516 C 55.0893 9.5536 55.3693 9.5466 55.5293 9.5556 C 55.6883 9.5656 55.8433 9.6016 55.9883 9.6646 C 56.2793 9.7896 56.5203 10.0296 56.6553 10.3146 C 56.7233 10.4566 56.7643 10.6106 56.7793 10.7686 C 56.7923 10.8946 56.7833 11.1996 56.7853 11.4066 L 56.7853 12.7856 L 56.7853 14.9566 L 51.9533 14.9566 C 51.9203 14.9826 51.6643 15.1966 51.6643 15.5606 C 51.6653 15.9226 51.9203 16.1346 51.9533 16.1606 L 54.6743 16.1606 L 56.0383 16.1606 L 56.7203 16.1606 C 57.0313 16.1486 57.6203 16.1886 57.9903 16.1336 L 57.9903 12.7856 L 57.9903 11.4066 C 57.9853 11.1536 58.0013 10.9986 57.9793 10.6646 C 57.9523 10.3656 57.8723 10.0686 57.7423 9.7966 C 57.4843 9.2516 57.0293 8.8036 56.4743 8.5626 C 56.1983 8.4416 55.8993 8.3706 55.5993 8.3536 C 55.3003 8.3406 55.1203 8.3496 54.8743 8.3466 L 52.1153 8.3466 L 49.3563 8.3466 C 49.1103 8.3506 48.9403 8.3366 48.6063 8.3596 C 48.3073 8.3916 48.0123 8.4766 47.7413 8.6106 C 47.2003 8.8766 46.7623 9.3396 46.5253 9.8966 C 46.4083 10.1746 46.3423 10.4746 46.3303 10.7746 L 46.3253 11.4906 L 46.3253 12.8696 L 46.3253 14.2496 L 46.3253 14.9396 L 46.3253 15.6116 L 46.3253 15.9566 L 46.3253 16.1286 C 46.3183 16.1936 46.4223 16.1466 46.4653 16.1606 L 51.2903 16.1606 L 51.3743 16.1606 C 51.4113 16.1316 51.6643 15.9336 51.6643 15.5906 C 51.6643 15.2116 51.4043 14.9806 51.3743 14.9566 " fill="#c15a2d"/>
<path transform="matrix(2.7777777,0,0,-2.7777777,0,196.85027)" d="M 13.7349 35.2196 L 13.6509 35.2196 L 10.0169 35.2196 L 8.1999 35.2196 L 7.1949 35.2196 L 6.2979 35.2326 L 6.2439 35.2346 L 6.2399 35.2906 L 6.2329 35.4026 L 6.2179 35.6266 L 6.1959 36.0756 C 6.1919 36.2066 6.1769 36.4136 6.1839 36.4846 L 6.1919 36.7336 C 6.2049 36.8996 6.2139 37.0656 6.2379 37.2306 C 6.2799 37.5626 6.3479 37.8926 6.4489 38.2166 C 6.6439 38.8646 6.9699 39.4986 7.4499 40.0246 C 7.5689 40.1556 7.6989 40.2796 7.8359 40.3946 C 7.9449 40.4786 8.0779 40.5936 8.1939 40.6746 L 8.6279 40.6746 L 9.5359 40.6746 L 11.3529 40.6746 L 11.3749 40.6746 C 11.4079 40.6476 11.6639 40.4346 11.6639 40.0706 C 11.6629 39.7086 11.4079 39.4966 11.3749 39.4696 L 11.3529 39.4696 L 9.5359 39.4696 L 8.6279 39.4696 C 8.5859 39.4696 8.6169 39.4706 8.6089 39.4706 C 8.5139 39.3916 8.4239 39.3056 8.3399 39.2126 C 8.0019 38.8426 7.7539 38.3756 7.6009 37.8656 C 7.5209 37.6116 7.4669 37.3466 7.4329 37.0766 C 7.4119 36.9426 7.4059 36.8056 7.3939 36.6706 L 7.3869 36.4246 L 13.6509 36.4246 L 13.7349 36.4246 C 13.7719 36.3946 14.0249 36.1966 14.0249 35.8546 C 14.0249 35.4746 13.7649 35.2436 13.7349 35.2196 " fill="#c15a2d"/>
</g>
</g>
</svg>
